/* XPM */
static char *_98524329e714a8fe5a3080857dcef21bqDd2WF3ZySQyT3l[] = {
/* columns rows colors chars-per-pixel */
"45 60 210 2 ",
"   c None",
".  c #010000",
"X  c #0A0304",
"o  c #0F0901",
"O  c #140D04",
"+  c #150909",
"@  c #1C1305",
"#  c #1B170C",
"$  c #161514",
"%  c #1B1817",
"&  c #030613",
"*  c #241508",
"=  c #301F09",
"-  c #370C1E",
";  c #321614",
":  c #371917",
">  c #2B0B0C",
",  c #322109",
"<  c #362305",
"1  c #2F261F",
"2  c #2E162B",
"3  c #2C2725",
"4  c #352C29",
"5  c #39302D",
"6  c #4C0000",
"7  c #490607",
"8  c #5C0509",
"9  c #5D090B",
"0  c #540405",
"q  c #4D0F14",
"w  c #6C0517",
"e  c #6B0819",
"r  c #720C17",
"t  c #780C1C",
"y  c #462C0A",
"u  c #52340D",
"i  c #4A2C15",
"p  c #7C330F",
"a  c #410D23",
"s  c #751635",
"d  c #731220",
"f  c #582E37",
"g  c #50411F",
"h  c #6A4817",
"j  c #774D16",
"k  c #7E541A",
"l  c #57443D",
"z  c #524522",
"x  c #6D4E38",
"c  c #734F2D",
"v  c #3E1A44",
"b  c #38324D",
"n  c #1A2872",
"m  c #39396F",
"M  c #353974",
"N  c #28317D",
"B  c #7A1C42",
"V  c #40365E",
"C  c #423C62",
"Z  c #324679",
"A  c #5F5149",
"S  c #504F51",
"D  c #60534A",
"F  c #6B4742",
"G  c #78685F",
"H  c #7A7956",
"J  c #445866",
"K  c #444A70",
"L  c #7B6962",
"P  c #737778",
"I  c #8B1526",
"U  c #821430",
"Y  c #9F1E33",
"T  c #87342B",
"R  c #A6203A",
"E  c #83510E",
"W  c #855617",
"Q  c #8B5916",
"!  c #895919",
"~  c #855619",
"^  c #8D5418",
"/  c #93641F",
"(  c #935A23",
")  c #9A4D36",
"_  c #9A5034",
"`  c #874C30",
"'  c #AE5C3B",
"]  c #926423",
"[  c #9A6C27",
"{  c #92672C",
"}  c #AB7036",
"|  c #9B1E4A",
" . c #941E43",
".. c #8A1F4B",
"X. c #8A224B",
"o. c #983341",
"O. c #B7274B",
"+. c #A82858",
"@. c #B2285E",
"#. c #B43350",
"$. c #BA2B65",
"%. c #B42A61",
"&. c #C32C50",
"*. c #D32C56",
"=. c #D73A5D",
"-. c #C82D4F",
";. c #C22E67",
":. c #CC3164",
">. c #D63569",
",. c #D23365",
"<. c #E43A6C",
"1. c #EA3B6E",
"2. c #F43F6F",
"3. c #F63F73",
"4. c #EC3A70",
"5. c #974E43",
"6. c #AC4B46",
"7. c #A44542",
"8. c #BB5650",
"9. c #8D6059",
"0. c #BA645D",
"q. c #A57D48",
"w. c #984862",
"e. c #927E75",
"r. c #BB7762",
"t. c #CE5C55",
"y. c #D04856",
"u. c #E3455B",
"i. c #CC644A",
"p. c #DB6558",
"a. c #CC6757",
"s. c #E76B56",
"d. c #F26E5F",
"f. c #FB4171",
"g. c #EE5467",
"h. c #DF6760",
"j. c #CB6D71",
"k. c #E26861",
"l. c #F46E65",
"z. c #F86F6A",
"x. c #FE716B",
"c. c #FB7167",
"v. c #FB7D74",
"b. c #EB7A6C",
"n. c #B99038",
"m. c #AC8A5D",
"M. c #AB8456",
"N. c #B58856",
"B. c #9C847A",
"V. c #B1946A",
"C. c #B89974",
"Z. c #AA896F",
"A. c #BDA17B",
"S. c #C79254",
"D. c #CBAB55",
"F. c #D9B457",
"G. c #C1956D",
"H. c #EF8B69",
"J. c #FFDA76",
"K. c #1F2E8A",
"L. c #1F2E84",
"P. c #1E328D",
"I. c #1D3090",
"U. c #213489",
"Y. c #213087",
"T. c #28458D",
"R. c #2C5192",
"E. c #366993",
"W. c #386E96",
"Q. c #3E7B97",
"!. c #3D7A98",
"~. c #FE7DA8",
"^. c #418399",
"/. c #5597A7",
"(. c #4B80AB",
"). c #5EABAF",
"_. c #58A2AA",
"`. c #78CCC2",
"'. c #7FD6C7",
"]. c #9F8B88",
"[. c #B4938B",
"{. c #BBA89D",
"}. c #B794A7",
"|. c #B1B2B2",
" X c #C7958E",
".X c #FB8E85",
"XX c #F99F94",
"oX c #F68D83",
"OX c #C3A98D",
"+X c #C9AF9B",
"@X c #C5AEAD",
"#X c #DCB9A9",
"$X c #DAB5A7",
"%X c #E5BDA9",
"&X c #FCB5A8",
"*X c #CFC8AB",
"=X c #F8C7B8",
"-X c #F4C3AE",
";X c #81D9C9",
":X c #C5CBCC",
">X c #E2D9CC",
",X c #FAD6C6",
"<X c #F5DED2",
"1X c #FFE3D8",
"2X c #EAE4DB",
"3X c #EEEAE3",
"4X c #F7EAE7",
"5X c #F6F1EE",
"6X c #F3F2F1",
"7X c #FAFBFB",
/* pixels */
"                                                                                          ",
"                                                                                          ",
"                                                                                          ",
"                                                                                          ",
"                                                                                          ",
"                                                                                          ",
"                                                                                          ",
"                                                                                          ",
"                                                                                          ",
"                                                                                          ",
"                                                                                          ",
"                                                                                          ",
"                                                                                          ",
"                                                                                          ",
"                                                                                          ",
"                                                                                          ",
"                                                                                          ",
"                                          8 8 9 9 9 8 8                                   ",
"                                    6 6 8 O.*.y.S.t.*.-.r                                 ",
"                                    I Y R ,.g.H.J.-X~.>.r 6                               ",
"                                  r &.3.<.+.) n.D.*X}.X.q >                               ",
"                                t =.:.$.+.- o @ # % % + X . .                             ",
"                            6 I &.:.s - - X . . . . . . . . . .                           ",
"                            e O.,.B > . . . . . . . . . . . . .                           ",
"                          8 | $.X.+ . . + $ $ $ + $ $ $ X . . .                           ",
"                          8 | $...X . q 0.@X:X@Xa. X:X|.3 . .                             ",
"                          7.j.w.a X i 6.v.4X:X].XX[.|.6XS                                 ",
"                        s.b.-XG . . 6.v..X4XP 3 $Xl S 6X                                  ",
"                      x.i.} %XL . X 7..X=X5XP 4 $XA S 5X1XG.W                             ",
"                      x.i.( H.F . . > 9.,X1X X8.oX X{.<X,XG.W                             ",
"                        p.i.d.6.: . 3 e.=X[.r.s.c.XX&X&X&XS.Q                             ",
"                          p.p.l.8.: B.=X+X3 < ( p.k.h.h.k.' j                             ",
"                          ; ; 7.z.t.b.0.3 . X * ; ; ; ; ; * O .                           ",
"                          . . : 7.z.x.a.G L 5 . . . . . . . . .                           ",
"                            . . ; i.l..X=X,XB.4 5 5 1 @ @ o .                             ",
"                              . * ~ p.z.v.&X-X#X#X%XC.k k j                               ",
"                                7 o.#.#.T T ` 5.M.N.} ] OXA.Q                             ",
"                              e U +.;.O.I I t d T E ] C.3XOXE                             ",
"                            6 U %.$.<.f.2.2.>.@.+.) C.6X7X+X{ {                           ",
"                            6 s $.<.3.f.f.f.3.=._ OX3X7X7X3X>X>Xm.E                       ",
"                            6 U $.>.1.f.f.f.f.u.( *X7X7X7X7X7X7XV.E                       ",
"                            a s | | :.1.1.1.4.=._ OX2X7X7X7X7X7XV.E                       ",
"                            N v 8 9  .%.@.@.@.@.+.) V.5X6X6X6X5XV.E                       ",
"                            P.Z J J f w w w w w e p ] m.m.m.m.m.q.                        ",
"                            Y.T.W.Q.S f D D D D D H H l j [ } Q y                         ",
"                            L.K.T.!.Q./.`.'.;X;X'.`./.M c n.F.] = .                       ",
"                          & n K.T.!.^.^./.`.;X;X;X(.K c ~ / [ ! , .                       ",
"                        * i l m P.R.!.^.^._.).).).R.V ! Q W W W , .                       ",
"                      . , W Q F M Y.R.W.W.E.E.E.E.T.C ~ ! ! ! ! , .                       ",
"                      . , ! ! ! x N Y.U.U.U.U.U.U.P.C ~ Q ! ! W , .                       ",
"                      . z D.[ Q ! x m K.K.          2 = j / j , O                         ",
"                      . g S.h u u u b I.Y.            . y u y X                           ",
"                      . , h O . . .                     . . .                             ",
"                          O . .                                                           ",
"                                                                                          ",
"                                                                                          ",
"                                                                                          ",
"                                                                                          ",
"                                                                                          ",
"                                                                                          "
};
