/* XPM */
static char *f10985ad56704f9983e69359cd8fe4f8aZftQboKtEoeXKDz[] = {
/* columns rows colors chars-per-pixel */
"64 93 229 2 ",
"   c None",
".  c black",
"X  c #010000",
"o  c #050001",
"O  c #070002",
"+  c #090002",
"@  c #090003",
"#  c #0A0003",
"$  c #0B0003",
"%  c #0E0301",
"&  c #0C0003",
"*  c #0D0202",
"=  c #0E0500",
"-  c #0F0401",
";  c #100500",
":  c #110600",
">  c #100005",
",  c #160006",
"<  c #1D0405",
"1  c #1D0505",
"2  c #160800",
"3  c #190008",
"4  c #1D0009",
"5  c #290707",
"6  c #220A02",
"7  c #230C00",
"8  c #230C01",
"9  c #240D00",
"0  c #2B0905",
"q  c #2D0C04",
"w  c #23000B",
"e  c #24000A",
"r  c #2A1000",
"t  c #321200",
"y  c #331300",
"u  c #360011",
"i  c #3B0012",
"p  c #241B1E",
"a  c #2A2A2A",
"s  c #4C0018",
"d  c #500019",
"f  c #510019",
"g  c #5B001D",
"h  c #5C001D",
"j  c #61001E",
"k  c #61001F",
"l  c #680819",
"z  c #6D2901",
"x  c #690021",
"c  c #6A0021",
"v  c #740024",
"b  c #7C0027",
"n  c #7E0027",
"m  c #93131F",
"M  c #911A18",
"N  c #AF1D1F",
"B  c #AF1E1F",
"V  c #B11F1D",
"C  c #B11F1E",
"Z  c #8D2C09",
"A  c #843201",
"S  c #863701",
"D  c #8C3203",
"F  c #8B3501",
"G  c #8C3501",
"H  c #8C3104",
"J  c #8E3204",
"K  c #9F3507",
"L  c #A12C0F",
"P  c #A2320A",
"I  c #A8340A",
"U  c #B13F04",
"Y  c #AA2C12",
"T  c #BA2B17",
"R  c #BB2C16",
"E  c #BD2F14",
"W  c #BD2F15",
"Q  c #B62719",
"!  c #B72719",
"~  c #B5241B",
"^  c #B6261A",
"/  c #B2211D",
"(  c #B1201E",
")  c #B4231C",
"_  c #B72819",
"`  c #B82918",
"'  c #B82819",
"]  c #B92919",
"[  c #B92A18",
"{  c #BA2A18",
"}  c #B63210",
"|  c #BF3511",
" . c #BF3114",
".. c #800028",
"X. c #810029",
"o. c #87002A",
"O. c #88002B",
"+. c #8D002C",
"@. c #8E002D",
"#. c #960729",
"$. c #90002D",
"%. c #94002E",
"&. c #95002F",
"*. c #9E072B",
"=. c #9B032D",
"-. c #98002F",
";. c #9B042D",
":. c #9C052C",
">. c #9C042D",
",. c #9C052D",
"<. c #9C062C",
"1. c #9D062C",
"2. c #9D072C",
"3. c #950828",
"4. c #9F092A",
"5. c #980030",
"6. c #A40F27",
"7. c #A00A29",
"8. c #A00B29",
"9. c #A00A2A",
"0. c #A10C29",
"q. c #A20C28",
"w. c #A30D28",
"e. c #A71325",
"r. c #A51026",
"t. c #A41027",
"y. c #A61126",
"u. c #A71424",
"i. c #A91623",
"p. c #AA1722",
"a. c #A91524",
"s. c #AD1B20",
"d. c #AC1A21",
"f. c #AD1A21",
"g. c #C73B0F",
"h. c #C83D0D",
"j. c #CA3F0C",
"k. c #C83C0E",
"l. c #C03213",
"z. c #C33611",
"x. c #C23412",
"c. c #C23512",
"v. c #C53910",
"b. c #905404",
"n. c #B54501",
"m. c #976C07",
"M. c #9B7608",
"N. c #A16A0A",
"B. c #CB410B",
"V. c #CE4409",
"C. c #CE4509",
"Z. c #CF4608",
"A. c #CE440A",
"S. c #CB400C",
"D. c #D74F03",
"F. c #D14807",
"G. c #D24906",
"H. c #D24907",
"J. c #D34A06",
"K. c #D44B05",
"L. c #D54D04",
"P. c #D44C05",
"I. c #D54C05",
"U. c #D54D05",
"Y. c #D64D04",
"T. c #D64E04",
"R. c #D64F04",
"E. c #D04608",
"W. c #D04708",
"Q. c #DA5301",
"!. c #D85003",
"~. c #D95202",
"^. c #DA5302",
"/. c #DB5702",
"(. c #DC5A03",
"). c #CC4D12",
"_. c #DF6303",
"`. c #C47106",
"'. c #C57406",
"]. c #E06504",
"[. c #E06604",
"{. c #E57405",
"}. c #E57605",
"|. c #E77B06",
" X c #9B833D",
".X c #EA8607",
"XX c #EA8708",
"oX c #EC8A08",
"OX c #ED8E08",
"+X c #EE8F08",
"@X c #F09609",
"#X c #F19A09",
"$X c #D4A10B",
"%X c #F8AF0B",
"&X c #F9B10C",
"*X c #FCBA0D",
"=X c #FDBC0D",
"-X c #F5B33F",
";X c #FFC20E",
":X c #E58A53",
">X c #E7905D",
",X c #F6B642",
"<X c #FFD864",
"1X c #818181",
"2X c #9B9994",
"3X c #ECA980",
"4X c #E9A98B",
"5X c #EDAE88",
"6X c #D9A3B4",
"7X c #EDBCA6",
"8X c #E5B2AC",
"9X c #D4C085",
"0X c #D4C18B",
"qX c #FEE399",
"wX c #F1C0A4",
"eX c #F1C1A4",
"rX c #F3C6A4",
"tX c #F3C7A4",
"yX c #F8D5A6",
"uX c #FEE5A0",
"iX c #FEE6A7",
"pX c #FFE9A8",
"aX c gray83",
"sX c #F6D7C4",
"dX c #F8E2D4",
"fX c #FDF6F3",
"gX c #FFFCF3",
"hX c #FEFCFA",
"jX c white",
/* pixels */
"                                                                                                                                ",
"                                                                                                                                ",
"                                                                                                                                ",
"                                                                                                                                ",
"                                                                                                                                ",
"                                                                                                                                ",
"                                                                                                                                ",
"          . . . . . . . . . . . . . . . . . . . . . . . . . . . . . . . . . . . . . . . . . . . . . . . . . . . . . .           ",
"          . r n.= . 1XaXaXaXaXaXaXaX0X$XaX9X$X$X$X$X$X$X$X$X'.n.$X`.n.n.n.n.I n U n.n.n.n L n.n n n.L n . . . $ n 4 .           ",
"          . t R.; . 2XgXfXhXjXfXfXgXuX=XgXqX=X=X=X=X=X=X=X=XXXR.=X.X^.^.^.^.S.=.R.^.^.^.=.c.^.$.$.^.| $.. . . * =.e .           ",
"          . 5 B * .  X<X>XsXjX>X>X<X,X|.<X-X|.|.|.|.|.|.|.|.).B |.].^.^.^.^.K.c.^.^.^.^.c.H.^.u u ^.K u . . . = c.q .           ",
"          . w 5.$ . M.;X^.eXjX^.^.;X#X^.;X@X^.^.^.^.^.^.^.^.] 5.^.^.^.^.^.^.^.^.^.^.^.^.^.^.^.. . ^.F . . . . ; ^.t .           ",
"          . w 5.$ . A ^.;XpXjX;X;X^.^.^.^.^.^.^.^.^.^.^.) 5.5.5.^.^.^.^.^.^.^.^.^.^.^.^.^.^.^.^.^.5.5.5.. . . ; ^.t .           ",
"          . w 5.$ . b.oXoXyXjXoXoXoX{.^.oX{.^.^.^.^.R.] t.5.5.5.^.^.^.^.^.^.^.^.^.^.^.^.^.^.^.z z 5.n s . . . ; ^.t .           ",
"          . w 5.$ . M.;X^.eXjX^.^.;X#X^.;X@X^.^.^.^.H.5.5.5.5.5.^.^.^.^.^.^.^.^.^.^.^.^.^.^.^.. . 5.j . . . . ; ^.t .           ",
"          . w 5.$ . A ^.;XpXjX;X;X^.^.^.^.^.^.^.^.t.5.5.5.5.5.5.^.^.^.^.^.^.^.^.^.^.^.^.^.B 5.5.5.5.5.5.. . . ; ^.t .           ",
"          . w 5.$ . S (.*XiXjX*X*X(./.^.^.^.^.^.R.i.:.5.5.5.5.5.^.^.^.^.^.^.^.^.^.^.^.^.R.f.5.+.+.5.%.+.. . . ; ^.t .           ",
"          . w 5.$ . m.&X_.tXjX_._.&XOX^.^.^.^.R.w.v.j.5.5.5.5.5.^.^.^.^.^.^.^.^.^.^.^.^.w.;.5., , 5.x , . . . ; ^.t .           ",
"          . w 5.w 3 N.%X].tXjX].].%XOX^.^.R.C.j.5.c.j.5.5.5.5.5.^.^.^.^.^.^.^.^.^.^.H.C.5.5.5.3 3 5.x 3 . . . ; ^.t .           ",
"          . w 5.5.5.l.^.;XpXjX;X;X^.^.^.^.l.5.5.5.5.5.5.5.5.5.5.^.^.^.^.^.^.^.^.^.^.( 5.5.5.5.5.5.5.5.5.. . . ; ^.t .           ",
"          . w 5.w 3 J ^.].tXjX].].^.^.^.w.) C.j.5.c.j.5.5.5.5.5.^.^.^.^.^.^.^.^.t.w.:.5.5.5.5.3 3 5.x 3 . . . ; ^.t .           ",
"          . w 5.w 3 J ^.].tXjX].].^.R.C.5.f.C.j.5.c.j.5.5.5.5.5.^.^.^.^.^.^.D.C.:.5.5.5.5.5.5.3 3 5.x 3 . . . ; ^.t .           ",
"          . w 5.5.5.l.^.;XpXjX;X;X^.c.5.5.5.5.5.5.5.5.5.5.5.5.5.^.^.^.^.^.^.j.5.5.5.5.5.5.5.5.5.5.5.5.5.. . . ; ^.t .           ",
"          . w 5.5.5.l.^.;XpXjX;X;X^.c.5.5.5.5.5.5.5.5.5.5.5.5.5.^.^.^.^.^.^.j.5.5.5.5.5.5.5.5.5.5.5.5.5.. . . ; ^.t .           ",
"          . w 5.$ . A ^.^.eXjX^.^.5.B ^.5.( ^.R.5.j.H.5.5.5.5.5.^.^.^.^.^.4.5.5.5.5.5.5.5.5.5.. . 5.j . . . . ; ^.t .           ",
"          . w 5.f s P ^.^.eXjX^.^.] ] ] 5.t.] ^ 5.C ^ 5.5.5.5.5.^.^.^.B.] ;.5.5.5.5.5.5.5.5.5.s s 5.n s . . . ; ^.t .           ",
"          . w 5.5.5.l.^.^.eXjX^.^.^.c.5.5.5.5.5.5.5.5.5.5.5.5.5.^.^.^.W 5.5.5.5.5.5.5.5.5.5.5.5.5.5.5.5.. . . ; ^.t .           ",
"          . w 5.$ . A ^.5.6XjX^.^.5.B ^.5.( ^.R.5.j.H.5.5.5.5.5.^._ 5.5.5.5.5.5.5.5.5.5.5.5.5.. . 5.j . . . . ; ^.t .           ",
"          . w 5.f s P ^.] 8XjX^.^.] ] ] 5.t.] ^ 5.C ^ 5.5.5.5.5.] u.5.5.5.5.5.5.5.5.5.5.5.5.5.s s 5.n s . . . * ] 0 .           ",
"          . w 5.5.5.l.^.^.eXjX^.^.^.c.5.5.5.5.5.5.5.5.5.5.5.5.5.5.5.5.5.5.5.5.5.5.5.5.5.5.5.5.5.5.5.5.5.. . . $ 5.w .           ",
"          . w 5...n } ^.C.7XjX^.^.C. .w.5.:.w.w.5.9.w.5.5.5.5.5.5.5.5.5.5.5.5.5.5.5.5.5.5.5.5.n n 5.+.n . . . $ 5.w .           ",
"          . w 5.$ . A ^.5.6XjX^.^.5.B ^.5.( ^.R.5.j.H.5.5.5.5.5.5.5.5.5.5.5.5.5.5.5.5.5.5.5.5.. . 5.j . . . . $ 5.w .           ",
"          . o 3 . . 2 9 3 p a 9 9 3 1 9 3 1 9 8 3 6 8 3 3 3 3 3 3 3 3 3 3 3 3 3 3 3 3 3 3 3 3 . . 3 > . . . . . 3 o .           ",
"          . . . . . . . . . . 3 3 . $ 3 3 3 3 3 3 3 3 3 3 3 3 3 3 3 3 3 3 3 3 3 3 3 $ . 3 $ . . . . . . . . . . . . .           ",
"                . . . . . . . 5.5.. u 5.5.5.5.5.5.5.5.5.5.5.5.5.5.5.5.5.5.5.5.5.5.5.i . 5.u . . . . . . . . . .                 ",
"                . . s n . f n 5.5.n.Y 5.5.5.5.5.5.5.5.5.5.5.5.5.5.5.5.5.5.5.5.5.5.5.O.n 5.o.n n n . . . n s . .                 ",
"                . . h 5.. j 5.5.5.^.c.5.5.5.5.5.5.5.5.5.5.5.5.5.5.5.5.5.5.5.5.5.5.5.5.5.5.5.5.5.5.. . . 5.h . .                 ",
"                . . h 5.. j 5.5.5.] f.5.5.5.5.5.5.5.5.5.5.5.5.5.5.5.5.5.5.5.5.5.5.5.5.5.s n 5.s s . . . 5.h . .                 ",
"                . . h 5.. j 5.5.5.5.5.5.5.5.5.5.5.5.5.5.5.5.5.5.5.5.5.5.5.5.5.5.5.5.5.5.. j 5.. . . . . 5.h . .                 ",
"                . . h 5.. j 5.5.5.^.c.5.5.( ^.R.5.5.5.5.5.5.5.5.5.5.5.5.5.5.5.5.5.5.5.5.5.5.5.5.5.. . . 5.h . .                 ",
"                . . h 5.. j 5.] ] ^.C.] 5.t.] ^ 5.5.5.5.5.5.5.5.5.5.5.5.5.5.5.5.5.5.5.5.s n 5.s s . . . 5.h . .                 ",
"                . . h 5.. j 5.^.^.^.^.^.5.5.5.5.5.5.5.5.5.5.5.5.5.5.5.5.5.5.5.5.5.5.5.5.. j 5.. . . . . 5.h . .                 ",
"                . . h 5.. j 5.5.5.^.c.5.5.( ^.R.5.j.H.5.5.5.5.5.5.5.5.5.5.5.5.5.5.5.5.5.5.5.5.5.5.. . . 5.h . .                 ",
"                . . h 5.. j 5.5.5.^.c.5.5.( ^.R.5.j.H.5.5.5.5.5.5.5.5.5.5.5.5.5.5.5.5.5.5.5.5.5.5.. . . 5.h . .                 ",
"                . . h 5.. j 5.C.C.dX4XC.C.W w.w.5.9.w.5.5.5.5.5.5.5.5.5.5.5.5.5.5.5.5.5.3 x 5.3 3 . . . 5.h . .                 ",
"                . . h 5.. l w.C.C.dX5X^.C.W w.w.5.9.w.5.*.w.:.5.5.5.5.5.5.5.5.5.5.5.5.5.3 x 5.3 3 . . . 5.h . .                 ",
"                . . h 5.. F ^.5.5.^.^.^.5.( ^.R.5.j.H.5.W ^.] 5.5.5.5.5.5.5.5.5.5.5.5.5.5.5.5.5.5.. . . 5.h . .                 ",
"                . . h 5.n 3.w.C.C.dX5X^.C.W w.w.5.9.w.5.*.w.:.5.5.5.5.5.5.5.5.5.5.5.5.5.3 x 5.3 3 . . . 5.h . .                 ",
"                . . h 5.n 3.w.C.C.jXeX^.C.W w.w.5.9.w.5.*.w.:.5.5.5.5.5.5.5.5.5.5.5.5.5.3 x 5.3 3 . . . 5.h . .                 ",
"                . . h 5.. F ^.5.5.jXeX^.5.( ^.R.5.j.H.5.W ^.] 5.5.5.5.5.5.5.5.5.5.5.5.5.5.5.5.5.5.. . . 5.h . .                 ",
"                . . h 5.. F ^.5.5.jXeX^.5.( ^.R.5.j.H.5.W ^.] 5.5.5.5.5.5.5.5.5.5.5.5.5.5.5.5.5.5.. . . 5.h . .                 ",
"                . . h 5.5.5.5.^.^.^.^.^.^.l.5.5.5.5.5.5.5.5.5.5.5.5.5.5.5.5.5.5.5.5.5.5.. j 5.. . . . . 5.h . .                 ",
"                . . h 5.s M ] ] ] 3X:X^.] ] ] ^ 5.C ^ 5.i.] a.5.5.5.5.5.5.5.5.5.5.5.5.5.s n 5.s s . . . 5.h . .                 ",
"                . . h 5.. F ^.5.5.jXeX^.5.( ^.R.5.j.H.5.W ^.] 5.5.5.5.5.5.5.5.5.5.5.5.5.5.5.5.5.5.. . . 5.h . .                 ",
"                . . h 5.5.5.5.^.^.jXeX^.^.l.5.5.5.5.5.5.5.5.5.5.5.5.5.5.5.5.5.5.5.5.5.5.. j 5.. . . . . 5.h . .                 ",
"                . . h 5.s M ] ] ] jXeX^.] ] ] ^ 5.C ^ 5.i.] a.5.5.5.5.5.5.5.5.5.5.5.5.5.s n 5.s s . . . 5.h . .                 ",
"                . . h 5.. F ^.5.5.jXeX^.5.( ^.R.5.j.H.5.W ^.] 5.5.5.5.5.5.5.5.5.5.5.5.5.5.5.5.5.5.. . . 5.h . .                 ",
"                . . h 5.3 Z C.w.w.jXeX^.w.) C.j.5.c.j.5.^ C.) 5.5.5.5.5.5.5.5.5.5.5.5.5.n +.5.n n . . . 5.h . .                 ",
"                . . h 5.5.5.5.^.^.jXeX^.^.l.5.5.5.5.5.5.5.5.5.5.5.5.5.5.5.5.5.5.5.5.5.5.. j 5.. . . . . 5.h . .                 ",
"                . . h 5.3 Z C.w.w.jXeX^.w.) C.j.5.c.j.5.^ C.) 5.5.5.5.5.5.5.5.5.5.5.5.5.n +.5.n n . . . 5.h . .                 ",
"                . . h 5.3 Z C.w.w.jXeX^.w.) C.j.5.c.j.5.^ C.) 5.5.5.5.5.5.5.5.5.5.5.5.5.n +.5.n n . . . 5.h . .                 ",
"                . . h 5.5.5.5.^.^.jXeX^.^.l.5.5.5.5.5.5.5.5.5.5.5.5.5.5.5.5.5.5.5.5.5.5.. j 5.. . . . . 5.h . .                 ",
"                . . h 5.3 Z C.w.w.jXeX^.w.) C.j.5.c.j.5.^ C.) 5.5.5.5.5.5.5.5.5.5.5.5.5.n +.5.n n . . . 5.h . .                 ",
"                . . h 5.. F ^.5.5.jXeX^.5.( ^.R.5.j.H.5.W ^.] 5.5.5.5.5.5.5.5.5.5.5.5.5.5.5.5.5.5.. . . 5.h . .                 ",
"                . . h 5.s M ] ] ] jXeX^.] ] ] ^ 5.C ^ 5.i.] a.5.5.5.5.5.5.5.5.5.5.5.5.5.s n 5.s s . . . 5.h . .                 ",
"                . . h 5.5.5.5.^.^.jXeX^.^.l.5.5.5.5.5.5.5.5.5.5.5.5.5.5.5.5.5.5.5.5.5.5.. j 5.. . . . . 5.h . .                 ",
"                . . h 5.. F ^.5.5.jXeX^.5.( ^.R.5.j.H.5.W ^.] 5.5.5.5.5.5.5.5.5.5.5.5.5.5.5.5.5.5.. . . 5.h . .                 ",
"                . . h 5.s M ] ] ] jXeX^.] ] ] ^ 5.C ^ 5.i.] a.5.5.5.5.5.5.5.5.5.5.5.5.5.s n 5.s s . . . 5.h . .                 ",
"                . . h 5.5.5.5.^.^.jXeX^.^.l.5.5.5.5.5.5.5.5.5.5.5.5.5.5.5.5.5.5.5.5.5.5.. j 5.. . . . . 5.h . .                 ",
"                . . h 5.. F ^.5.5.jXeX^.5.( ^.R.5.j.H.5.W ^.] 5.5.5.5.5.5.5.5.5.5.5.5.5.5.5.5.5.5.. . . 5.h . .                 ",
"                . . h 5.. F ^.5.5.jXeX^.5.( ^.R.5.j.H.5.W ^.] 5.5.5.5.5.5.5.5.5.5.5.5.5.5.5.5.5.5.. . . 5.h . .                 ",
"                . . h 5.n 3.w.C.C.jXeX^.C.W w.w.5.9.w.5.*.w.:.5.5.5.5.5.5.5.5.5.5.5.5.5.3 x 5.3 3 . . . 5.h . .                 ",
"                . . h 5.n 3.w.C.C.jXeX^.C.W w.w.5.9.w.5.*.w.:.5.5.5.5.5.5.5.5.5.5.5.5.5.3 x 5.3 3 . . . 5.h . .                 ",
"                . . h 5.. F ^.5.5.jXeX^.5.( ^.R.5.j.H.5.W ^.] 5.5.5.5.5.5.5.5.5.5.5.5.5.5.5.5.5.5.. . . 5.h . .                 ",
"                . . h 5.n 3.w.C.C.jXeX^.C.W w.w.5.9.w.5.*.w.:.5.5.5.5.5.5.5.5.5.5.5.5.5.3 x 5.3 3 . . . 5.h . .                 ",
"                . . h 5...#.w.E.E.jXeX^.E.W w.9.5.4.9.5.:.w.:.5.5.5.5.5.5.5.5.5.5.5.5.5., x 5., , . . . 5.h . .                 ",
"                . . h 5.$ J R.:.:.jXeX^.:.( R.E.5.g.C.5.T R.^ 5.5.5.5.5.5.5.5.5.5.5.5.5.+.%.5.+.+.. . . 5.h . .                 ",
"                . . h 5.. F ^.5.5.jXeX^.5.( ^.R.5.j.H.5.W ^.] 5.5.5.5.5.5.5.5.5.5.5.5.5.5.5.5.5.5.. . . 5.h . .                 ",
"                . . h 5.5.5.5.^.^.jXeX^.^.l.5.5.5.5.5.5.5.5.5.5.5.5.5.5.5.5.5.5.5.5.5.5.. j 5.. . . . . 5.h . .                 ",
"                . . h 5.s M ] ] ] jXeX^.] ] ] ^ 5.C ^ 5.i.] a.5.5.5.5.5.5.5.5.5.5.5.5.5.s n 5.s s . . . 5.h . .                 ",
"                . . h 5.. F ^.5.5.jXeX^.5.( ^.R.5.j.H.5.W ^.] 5.5.5.5.5.5.5.5.5.5.5.5.5.5.5.5.5.5.. . . 5.h . .                 ",
"                . . h 5.5.5.5.^.^.jXeX^.^.l.5.5.5.5.5.5.5.5.5.5.5.5.5.5.5.5.5.5.5.5.5.5.. j 5.. . . . . 5.h . .                 ",
"                . . h 5.j m B c.c.jXeX^.c.T B f.5.i.f.5.t.B 6.5.5.5.5.5.5.5.5.5.5.5.5.5.u v 5.u u . . . 5.h . .                 ",
"                . . h 5.o D R.=.=.jXeX^.=.( R.H.5.j.C.5.R R.] 5.5.5.5.5.5.5.5.5.5.5.5.5.$.%.5.$.$.. . . 5.h . .                 ",
"                . . h 5.3 Z C.w.w.jXeX^.w.) C.j.5.c.j.5.^ C.) 5.5.5.5.5.5.5.5.5.5.5.5.5.n +.5.n n . . . 5.h . .                 ",
"                . . h 5.5.5.5.^.^.jXeX^.^.l.5.5.5.5.5.5.5.5.5.5.5.5.5.5.5.5.5.5.5.5.5.5.. j 5.. . . . . 5.h . .                 ",
"                . . h 5.3 Z C.w.w.jXeX^.w.) C.j.5.c.j.5.^ C.) 5.5.5.5.5.5.5.5.5.5.5.5.5.n +.5.n n . . . 5.h . .                 ",
"                . . g =.. G ^.=.=.jXeX^.=.C ^.R.=.j.H.=.W ^.] =.=.=.=.=.=.=.=.=.=.=.=.=.%.=.=.=.=.. . . =.g . .                 ",
"                                                                                                                                ",
"                                                                                                                                ",
"                                                                                                                                ",
"                                                                                                                                ",
"                                                                                                                                "
};
