/* XPM */
static char *d7c3795a145841ecda73051de6bbbd49NM5rflrDitY8iSxv[] = {
/* columns rows colors chars-per-pixel */
"41 60 179 2 ",
"   c None",
".  c #010000",
"X  c #0A0202",
"o  c #140006",
"O  c #1C0009",
"+  c #170409",
"@  c #2B0905",
"#  c #23000B",
"$  c #29000D",
"%  c #270904",
"&  c #30000F",
"*  c #341400",
"=  c #350011",
"-  c #3C0013",
";  c #411702",
":  c #57140B",
">  c #440015",
",  c #4D0018",
"<  c #54001B",
"1  c #5B001D",
"2  c #530C10",
"3  c #741C0E",
"4  c #61001F",
"5  c #6F0B1A",
"6  c #740E19",
"7  c #681311",
"8  c #7A1615",
"9  c #7B1A11",
"0  c #7F1319",
"q  c #771117",
"w  c #681E07",
"e  c #552300",
"r  c #5A2902",
"t  c #5B3B03",
"y  c #6C2306",
"u  c #6F2109",
"i  c #672800",
"p  c #7D2F02",
"a  c #7D210D",
"s  c #7E3001",
"d  c #660020",
"f  c #6A0022",
"g  c #730024",
"h  c #7A0026",
"j  c #7E0028",
"k  c #5D4007",
"l  c #654306",
"z  c #625B3F",
"x  c #424343",
"c  c #821F0F",
"v  c #840E1E",
"b  c #81111B",
"n  c #91151D",
"m  c #AE1C1E",
"M  c #A01E18",
"N  c #B01F1F",
"B  c #8E2F06",
"V  c #84230D",
"C  c #8A2B09",
"Z  c #962B0D",
"A  c #953901",
"S  c #963A01",
"D  c #872111",
"F  c #922914",
"G  c #A6310D",
"H  c #A22118",
"J  c #B62617",
"K  c #BB2B15",
"L  c #B4231B",
"P  c #B92A19",
"I  c #B82816",
"U  c #BF3114",
"Y  c #870C22",
"T  c #8A0A24",
"R  c #84002A",
"E  c #8B002C",
"W  c #890626",
"Q  c #93002E",
"!  c #9A032E",
"~  c #9F092B",
"^  c #970030",
"/  c #980030",
"(  c #A40F27",
")  c #A20C29",
"_  c #A0072D",
"`  c #A61226",
"'  c #A91524",
"]  c #AD1A21",
"[  c #C1330F",
"{  c #C53A0F",
"}  c #C93E0D",
"|  c #C23413",
" . c #C03B26",
".. c #A25E05",
"X. c #A36005",
"o. c #CD430B",
"O. c #CC4307",
"+. c #D44B03",
"@. c #D14709",
"#. c #D14908",
"$. c #D65103",
"%. c #DA5302",
"&. c #DD5B03",
"*. c #D7540E",
"=. c #D65819",
"-. c #CC471A",
";. c #DE6103",
":. c #DC680E",
">. c #E26C05",
",. c #E16601",
"<. c #E57404",
"1. c #E37707",
"2. c #C4452B",
"3. c #D45C2A",
"4. c #D25729",
"5. c #CA553E",
"6. c #CF5A3B",
"7. c #D05C3A",
"8. c #DA6326",
"9. c #D76128",
"0. c #D86128",
"q. c #D46236",
"w. c #E1783A",
"e. c #B2344B",
"r. c #B83D49",
"t. c #AF3251",
"y. c #B03450",
"u. c #AA2C54",
"i. c #BE4646",
"p. c #BB4148",
"a. c #8E5866",
"s. c #C34C43",
"d. c #C65141",
"f. c #AF8509",
"g. c #AF8917",
"h. c #EA8306",
"j. c #E68B07",
"k. c #E78309",
"l. c #EF9106",
"z. c #F39909",
"x. c #F29B08",
"c. c #ED8F10",
"v. c #EB9211",
"b. c #F4A016",
"n. c #F5A508",
"m. c #AF9445",
"M. c #A68069",
"N. c #F8B741",
"B. c #E18F6D",
"V. c #E99D71",
"C. c #ECA67C",
"Z. c #F1B47E",
"A. c #F4BD7F",
"S. c #FED57A",
"D. c #AFA588",
"F. c #ACACAC",
"G. c #AFAFB0",
"H. c gray69",
"J. c #D88E8B",
"K. c #DD9388",
"L. c #E9A184",
"P. c #F3BB84",
"I. c #F0B897",
"U. c #F4BC9A",
"Y. c #F9CB81",
"T. c #F6C480",
"R. c #FED984",
"E. c #FCD782",
"W. c #F6C99B",
"Q. c #F3C298",
"!. c #F9D399",
"~. c #F9D99C",
"^. c #FDE19B",
"/. c #F3C2A3",
"(. c #F2C8B2",
"). c #F5D7C6",
"_. c #F6D9C9",
"`. c #FADECF",
"'. c #FBE4D9",
/* pixels */
"                                                                                  ",
"                                                                                  ",
"                                                                                  ",
"                                                                                  ",
"                                                                                  ",
"      X e % x F.H.F.G.D.m.D.g.f.f.f.f.X.....S S C 8 S A 8 C 5 V 9 # . O - X       ",
"      X 3 @ z !.`.'./.R.N.S.b.z.z.z.z.:.:.<.&.&.@.| %.%.| o.5 G Z O . @ 7 X       ",
"      X 1 # k v.P.W.k.v.1.c.&.%.&.%.o.L K &.%.%.%.%.%.%.%.$.r B 9 X . * p X       ",
"      X 1 # r k.Y.!.l.<.;.<.%.%.%.{ ( ^ P %.%.%.%.%.%.%.%.%.S n h O . * s X       ",
"      X 1 # t j.A.W.h.j.>.h.&.%.{ ` / ^ P %.%.%.%.%.%.%.$.{ 2 g f o . * s X       ",
"      X 1 # e 1.E.^.n.;.%.%.%.#.] ! / ^ P %.%.%.%.%.%.%.o.) R E E $ . * s X       ",
"      X 1 $ l j.Z.Q.<.z.&.%.+.L U ` ^ ^ P %.%.%.%.%.%.+.] Q = d 1 X . * s X       ",
"      X 1 f F 1.Y.!.l.>.%.} L ) ' ~ / ^ P %.%.%.%.$.o.L ! Q f R j O . * s X       ",
"      X 1 - w $.Z.Q.,.%.} ] { ] K ` ^ ^ P %.%.%.%.| ) ! / Q = d 1 X . * s X       ",
"      X 1 R M >.E.~.x.#.' ! ) ~ ) ! / ^ P %.%.%.o.) / / / ^ R E E $ . * s X       ",
"      X 1 1 c ;.T.!.1.K N ) L ` ] ) ^ ^ P %.%.@.L ! / / / Q 1 h g O . * s X       ",
"      X 1 4 D +.C.I.+.K N ) L ` ] ) ^ ^ P &.#.N / / / / / Q 1 h g O . * s X       ",
"      X 1 < a } J.I.+.P L ) P ` L ) ^ ^ P { ] ! / / / / / Q < g f o . * p X       ",
"      X 1 d D O.K.I.+.K ] ~ L ( ] ) ^ ^ ` ( ^ / / / / / / Q 4 j g O . @ 7 X       ",
"      X 1 R H +.L.U.%.} ` ~ ( _ ) ~ / / / / / / / / / / / / R E E $ . # 1 X       ",
"      X - # ; V a.M.B q V 6 B 8 V 6 f f f f f f f f f f f d O > - . . O - X       ",
"      . X . . X X + # X # $ $ $ $ $ $ $ $ $ $ $ $ $ $ X O X . . . . . . X .       ",
"          . o # o 1 W : W Q Q Q Q Q Q Q E E Q Q Q Q E , g > = o . # o .           ",
"          . - 1 > Q ) { ~ / / / / / / / / / / / / / / Q E Q E = . 1 - .           ",
"          . - 4 > ^ ! ` ! / ! ! / / / / / / / / / / / Q < j > o . 4 - .           ",
"          . - 4 > ! ` | ) ) | ' ^ / / / / / / / / / / ^ h E g $ . 4 - .           ",
"          . - 4 > ' o.$.U ~ ' ~ ! ! / / / / / / / ^ / Q < j > o . 4 - .           ",
"          . - 4 > ! ] O.` ` } m | ' ^ / / / / / / / / ^ E Q R = . 4 - .           ",
"          . - 4 > ( 2.B. .P P ` ] ) ^ / / / / / / / ^ Q d R 1 O . 4 - .           ",
"          . - 1 2 J 2.V.=.K L ( ] ) ] ` / / / / / / / Q 4 R < O . 4 - .           ",
"          . - j b L 2.V.=.K L ( ] ) ] ` / / / / / / / Q 4 R < O . 4 - .           ",
"          . - h 0 J d._.9.P P ` ] ) ] ' / / / / / / / Q d R 1 O . 4 - .           ",
"          . - d y K e./.4.m o.m U ] U L / / / / / / / ^ E Q R = . 4 - .           ",
"          . - R Y L -.w.*.| ] ) ` ~ ` ) / / / / / / / Q < j > o . 4 - .           ",
"          . - g 3 P r.(.4.L | ] L ' L N / / / / / / / ^ h E g $ . 4 - .           ",
"          . - R Y L 7._.8.U ] ) ` ~ ` ) / / / / / / / Q < j > o . 4 - .           ",
"          . - d y K t.).4.m O.N | ] | P / / / / / / / / E Q E = . 4 - .           ",
"          . - j b J 5.).0.K L ) ] ) ] ` / / / / / / / Q 1 R , O . 4 - .           ",
"          . - f 3 P r.).3.L | ] P ' P L / / / / / / / ^ h E g $ . 4 - .           ",
"          . - j v J 5.).0.K L ) ' ) ' ` / / / / / / / Q 1 R , o . 4 - .           ",
"          . - f u K e.).3.m } ] K ' K L / / / / / / / ^ R Q R & . 4 - .           ",
"          . - g 8 J s.).3.J K ' L ` L ] / / / / / / / Q f E 4 # . 4 - .           ",
"          . - j b J 5.).0.P L ( ] ) ] ' / / / / / / / Q 4 R < O . 4 - .           ",
"          . - g 0 J s.).3.I P ` N ( N ] / / / / / / / Q f R 1 O . 4 - .           ",
"          . - h 0 J s.).9.P P ` m ( m ' / / / / / / / Q f R 1 O . 4 - .           ",
"          . - f u K e.).4.m } ] U ] U L / / / / / / / ^ R Q R = . 4 - .           ",
"          . - R T L q.).8.[ ' ~ ) ~ ) ) / / / / / / / Q , j - X . 4 - .           ",
"          . - g 9 P i.).3.L U ' L ` L ] / / / / / / / ^ g E f $ . 4 - .           ",
"          . - R W L q.).8.[ ' ~ ) ~ ) ) / / / / / / / Q , h = X . 4 - .           ",
"          . - d y K y.).4.m O.N | ] U L / / / / / / / ^ E Q E = . 4 - .           ",
"          . - j v J 5.).0.K L ) ' ) ' ` / / / / / / / Q 1 R , o . 4 - .           ",
"          . - g 9 P i.).3.L U ' L ` L ] / / / / / / / ^ g E f $ . 4 - .           ",
"          . - R Y L 6.).0.K m ) ` ) ` ( / / / / / / / Q < j > o . 4 - .           ",
"          . - g 8 I i.).3.L U ' L ` L ] / / / / / / / Q g E d # . 4 - .           ",
"          . - f 3 P p.).3.L | ] P ' L N / / / / / / / ^ h E g $ . 4 - .           ",
"          . - h b J d.).0.P L ` ] ) ] ' / / / / / / / Q 4 R < O . 4 - .           ",
"          . - 4 i K u.).4.' #.L { m { K ! ! ! ! ! ! ! ! Q Q ! - . 4 - .           ",
"                                                                                  ",
"                                                                                  ",
"                                                                                  "
};
