/* XPM */
static char *_66a11e4bcb84de9cc134bb118876f490i3sO3YlpDz4wT7H[] = {
/* columns rows colors chars-per-pixel */
"64 60 3 1 ",
"  c None",
". c #008F00",
"X c #80CF10",
/* pixels */
"  ...........XXXX...........XXXX..............................  ",
"  ...........XXXX...........XXXX..............................  ",
"  ...........XXXX...........XXXX..............................  ",
"  ...........XXXX...........XXXX..............................  ",
"  ............................................................  ",
"  ............................................................  ",
"  ............................................................  ",
"  ...........XXXX....XXXX.................................XXXX  ",
"  ...........XXXX....XXXX.................................XXXX  ",
"  ...........XXXX....XXXX.................................XXXX  ",
"  ...........XXXX....XXXX.................................XXXX  ",
"  ...........XXXX....XXXX.................................XXXX  ",
"  ..............................................XXX...........  ",
"  ..............................................XXX...........  ",
"  ..............................................XXX...........  ",
"  ....XXXX.......XXXX.........................................  ",
"  ....XXXX.......XXXX.........................................  ",
"  ....XXXX.......XXXX.........................................  ",
"  ....XXXX.......XXXX.........................................  ",
"  .........................................XXXXX.......XXX....  ",
"  .........................................XXXXX.......XXX....  ",
"  .........................................XXXXX.......XXX....  ",
"  ....XXXX..........................XXXX......................  ",
"  ....XXXX..........................XXXX......................  ",
"  ....XXXX..........................XXXX......................  ",
"  ....XXXX..........................XXXX......................  ",
"  ....XXXX..........................XXXX......................  ",
"  ............................................................  ",
"  ............................................................  ",
"  ............................................................  ",
"  .........................................XXXXX.......XXX....  ",
"  .........................................XXXXX.......XXX....  ",
"  .........................................XXXXX.......XXX....  ",
"  .........................................XXXXX.......XXX....  ",
"  ..............................XXXX..........................  ",
"  ..............................XXXX..........................  ",
"  ..............................XXXX..........................  ",
"  ...................XXXX..................XXXXX...XXXX.......  ",
"  ...................XXXX..................XXXXX...XXXX.......  ",
"  ...................XXXX..................XXXXX...XXXX.......  ",
"  ...................XXXX..................XXXXX...XXXX.......  ",
"  ...................XXXX..................XXXXX...XXXX.......  ",
"  ..................................XXXX......................  ",
"  ..................................XXXX......................  ",
"  ..................................XXXX......................  ",
"  ..........................XXXX..............................  ",
"  ..........................XXXX..............................  ",
"  ..........................XXXX..............................  ",
"  ..........................XXXX..............................  ",
"  ........XXX....XXXX...................XXX...................  ",
"  ........XXX....XXXX...................XXX...................  ",
"  ........XXX....XXXX...................XXX...................  ",
"  ..........................XXXX..............................  ",
"  ..........................XXXX..............................  ",
"  ..........................XXXX..............................  ",
"  ..........................XXXX..............................  ",
"  ..........................XXXX..............................  ",
"  XXXX........................................................  ",
"  XXXX........................................................  ",
"  XXXX........................................................  "
};
