/* XPM */
static char *xpm_[] = {
/* columns rows colors chars-per-pixel */
"64 109 51 1 ",
"  c #670000",
". c #680000",
"X c #6E0409",
"o c #6E0909",
"O c #6F0C0C",
"+ c #801122",
"@ c #851529",
"# c #87162B",
"$ c #871D2E",
"% c #802220",
"& c #852927",
"* c #812A2A",
"= c #872B2A",
"- c #882F34",
"; c #863333",
": c #883737",
"> c #993342",
", c #BF3F7A",
"< c #A04D4A",
"1 c #A16262",
"2 c #BF7A75",
"3 c #C67F7E",
"4 c #C4817B",
"5 c #C44281",
"6 c #C64983",
"7 c #D8519C",
"8 c #D96AA5",
"9 c #F868C8",
"0 c #F86FCA",
"q c #C29999",
"w c #D89C96",
"e c #DFA59F",
"r c #C7A1A1",
"t c #DAABBB",
"y c #F1BEB6",
"u c #F881D0",
"i c #F887D2",
"p c #F888D3",
"a c #F9A1DC",
"s c #DBC4C4",
"d c #F8C8C0",
"f c #E2D0D0",
"g c #FAC2E7",
"h c #F8D8ED",
"j c #FBDBF0",
"k c #F4EFEF",
"l c #FBE2F3",
"z c #FBF4F9",
"x c #F8F8F8",
"c c gray99",
"v c None",
/* pixels */
"vvvvvvvvvvvvvvvvvvvvvvvvvvvvvvvvvvvvvvvvvvvvvvvvvvvvvvvvvvvvvvvv",
"vvvvvvvvvvvvvvvvvvvvvvvvvvvvvvvvvvvvvvvvvvvvvvvvvvvvvvvvvvvvvvvv",
"vvvvvvvvvvvvvvvvvvvvvvvvvvvvvvvvvvvvvvvvvvvvvvvvvvvvvvvvvvvvvvvv",
"vvvvvvvvvvvvvvvv............................vvvvvvvvvvvvvvvvvvvv",
"vvvvvvvvvvvvvvvv............................vvvvvvvvvvvvvvvvvvvv",
"vvvvvvvvvvvvvvvv............................vvvvvvvvvvvvvvvvvvvv",
"vvvvvvvvvvvvvvvv............................vvvvvvvvvvvvvvvvvvvv",
"vvvvvvvv........cccjp99999999999999pjccccccs:.......vvvvvvvvvvvv",
"vvvvvvvv........cccjp99999999999999pjccccccs:.......vvvvvvvvvvvv",
"vvvvvvvv........cccjp99999999999999pjccccccs:.......vvvvvvvvvvvv",
"vvvvvvvv::::::::cccjp99999999999pppalccccccf1:::###@vvvvvvvvvvvv",
"vvvv....sssssssscccjp99999999999jjjlzcccccckfsss7775@...vvvvvvvv",
"vvvv....cccccccccccjp99999999999cccccccccccccccc9997#...vvvvvvvv",
"vvvv....cccccccccccjp99999999999cccccccccccccccc9997#...vvvvvvvv",
"vvvv....cccccccccccjp99999999999cccccccccccccccc9997#...vvvvvvvv",
"vvvv....cccccccc9999999999999999cccccccccccccccc99999999....vvvv",
"vvvv....cccccccc9999999999999999cccccccccccccccc99999999....vvvv",
"vvvv....cccccccc9999999999999999cccccccccccccccc99999999....vvvv",
"vvvv@#@#jjjjjjjjpppppppp99999999jjjlzcccccczljjj99999999....vvvv",
"...@5777ppppppppjjjjjjjj99999999pppalcccccclappp99999999....vvvv",
"...#799999999999cccccccc99999999999pjccccccjp99999999999....vvvv",
"...#799999999999cccccccc99999999999pjccccccjp99999999999....vvvv",
"...#799999999999cccccccc99999999999pjccccccjp99999999999....vvvv",
"...#7999999pjccccccccccccccjp9999999999999999999cccjp9999997#...",
"...#7999999pjccccccccccccccjp9999999999999999999cccjp9999997#...",
"...#7999999pjccccccccccccccjp9999999999999999999cccjp9999997#...",
"...#7999999pjccccccccccccccjp99999999999ppppppppccclappp9997#...",
"...#7999999pjccccccccccccccjp99999999999jjjjjjjjccczljjj9997#...",
"...#7999999pjccccccccccccccjp99999999999cccccccccccccccc9997#...",
"...#7999999pjccccccccccccccjp99999999999cccccccccccccccc9997#...",
"...#7999999pjccccccccccccccjp99999999999cccccccccccccccc9997#...",
"...:sccc99999999cccccccc9999999999999999cccccccccccccccc9997#...",
"...:sccc99999999cccccccc9999999999999999cccccccccccccccc9997#...",
"...:sccc99999999cccccccc9999999999999999cccccccccccccccc9997#...",
"...:sccc99999999jjjjjjjj9999999999999999cccccccccccccccc9997#...",
"...:sccc99999999pppppppp9999999999999999cccccccccccccccc9997#...",
"...:sccc99999999999999999999999999999999cccccccccccccccc9997#...",
"...:sccc99999999999999999999999999999999cccccccccccccccc9997#...",
"...:sccc99999999999999999999999999999999cccccccccccccccc9997#...",
"...@7999........................99999999999pjccccccjp9999997#...",
"...#7999........................99999999999pjccccccjp9999997#...",
"...#7999........................99999999999pjccccccjp9999997#...",
"...@5777...o%===...o%===...o%===77777777999ugjjjjjjgu9997775@...",
"vvvv@###...%2www...%2www...%2www########9990uppppppu0999###@vvvv",
"vvvv.......=wddd...=wddd...=wddd........9999999999999999....vvvv",
"vvvv.......=wddd...=wddd...=wddd........9999999999999999....vvvv",
"vvvv.......=wddd...=wddd...=wddd........9999999999999999....vvvv",
"vvvvvvvv...=wddd...=wddd...=wddddddddddd...#79999997#.......vvvv",
"vvvvvvvv...=wddd...=wddd...=wddddddddddd...#79999997#.......vvvv",
"vvvvvvvv...=wddd...=wddd...=wddddddddddd...#79999997#.......vvvv",
"vvvvvvvv...=wddd===<eddd===<eddddddddddd===>6777777,+.......vvvv",
"vvvvvvvv...=wdddwwweydddwwweydddddddddddwww4>######+X...vvvvvvvv",
"vvvvvvvv...=wddddddddddddddddddddddddddddddw=...........vvvvvvvv",
"vvvvvvvv...=wddddddddddddddddddddddddddddddw=...........vvvvvvvv",
"vvvvvvvv...=wddddddddddddddddddddddddddddddw=...........vvvvvvvv",
"vvvvvvvvvvvv....dddddddddddddddddddw=...........99999999....vvvv",
"vvvvvvvvvvvv....dddddddddddddddddddw=  .........99999999....vvvv",
"vvvvvvvvvvvv....dddddddddddddddddddw= ..........99999999....vvvv",
"vvvvvvvvvvvv....wwwwwwwwddddddddwww3%...........99999999....vvvv",
"vvvvvvvvvvvvvvvv========dddddddd===%o...........99999999....vvvv",
"vvvvvvvvvvvvvvvv........dddddddd................99999999....vvvv",
"vvvvvvvvvvvvvvvv........dddddddd................99999999....vvvv",
"vvvvvvvvvvvvvvvv........dddddddd................99999999....vvvv",
"vvvvvvvvvvvv.......=wddddddw=...........dddw=...........cccs:...",
"vvvvvvvvvvvv.......=wddddddw=...........ddde=...........cccs:...",
"vvvvvvvvvvvv.......=wddddddw=...........dddw=...........cccs:...",
"vvvvvvvvvvvv.......%2wwwwww2%...........ddde<===...X+#@#jjjt;...",
"vvvvvvvv.... ......o%======%o...........dddyewww...+,777ppp8$...",
"vvvvvvvv................................dddddddd...#79999997@...",
"vvvvvvvv................................dddddddd...#79999997#...",
"vvvvvvvv................................dddddddd...#79999997#...",
"vvvv....dddw=...999999999997@........... ..=wddddddw=...........",
"vvvv....dddw=...999999999997#..............=wddddddw=...........",
"vvvv....dddw=...999999999997#..............=wddddddw=...........",
"vvvv&===dddw=...999999999997#..............%3wwwddde<====&=%o...",
"...=4wwwdddw=...999999999997#.............oOO&==dddyewwwwww3%...",
"...=wddddddw=...999999999997#...................dddddddddddw=...",
"...=wddddddw=...999999999997#...................dddddddddddw=...",
"...=wddddddw=...999999999997#...................dddddddddddw=...",
"vvvv....dddw=...9999999999999999................dddddddd   .vvvv",
"vvvv....dddw=...9999999999999999................dddddddd....vvvv",
"vvvv....dddw=...9999999999999999................dddddddd....vvvv",
"vvvv....www3>###iipiiiiiiiiiiiii###+X...........wwwwwwww....vvvv",
"vvvvvvvv===>6777hhhhhhhhhhhhhhhh777,+...........========....vvvv",
"vvvvvvvv...#7999xxxxxxxxxxxxxxxx9997#.......................vvvv",
"vvvvvvvv...#7999xxxxxxxxxxxxxxxx9997#.......................vvvv",
"vvvvvvvv...#7999xxxxxxxxxxxxxxxx9997#.......................vvvv",
"vvvvvvvv............................................vvvvvvvvvvvv",
"vvvvvvvv............................................vvvvvvvvvvvv",
"vvvvvvvv............................................vvvvvvvvvvvv",
"vvvvvvvv........::::::::...O*:::::::::::::::::::....vvvvvvvvvvvv",
"vvvvvvvvvvvv....ssssssss...*qsssssssssssssssssss....vvvvvvvvvvvv",
"vvvvvvvvvvvv....cccccccc...:sccccccccccccccccccc....vvvvvvvvvvvv",
"vvvvvvvvvvvv....cccccccc...:sccccccccccccccccccc....vvvvvvvvvvvv",
"vvvvvvvvvvvv....cccccccc...:sccccccccccccccccccc....vvvvvvvvvvvv",
"vvvvvvvvvvvvvvvv...:sccccccs:...........cccs:...vvvvvvvvvvvvvvvv",
"vvvvvvvvvvvvvvvv...:sccccccs:...........cccs:...vvvvvvvvvvvvvvvv",
"vvvvvvvvvvvvvvvv...:sccccccs:...........cccs:...vvvvvvvvvvvvvvvv",
"vvvvvvvvvvvvvvvv...*qssssssq*...........sssr;...vvvvvvvvvvvvvvvv",
"vvvvvvvvvvvvvvvv...O*::::::*O...........:::;vvvvvvvvvvvvvvvvvvvv",
"vvvvvvvvvvvvvvvv............................vvvvvvvvvvvvvvvvvvvv",
"vvvvvvvvvvvvvvvv............................vvvvvvvvvvvvvvvvvvvv",
"vvvvvvvvvvvvvvvv............................vvvvvvvvvvvvvvvvvvvv",
"vvvvvvvvvvvvvvvvvvvv....................vvvvvvvvvvvvvvvvvvvvvvvv",
"vvvvvvvvvvvvvvvvvvvv....................vvvvvvvvvvvvvvvvvvvvvvvv",
"vvvvvvvvvvvvvvvvvvvv....................vvvvvvvvvvvvvvvvvvvvvvvv",
"vvvvvvvvvvvvvvvvvvvv....................vvvvvvvvvvvvvvvvvvvvvvvv",
"vvvvvvvvvvvvvvvvvvvvvvvvvvvvvvvvvvvvvvvvvvvvvvvvvvvvvvvvvvvvvvvv",
"vvvvvvvvvvvvvvvvvvvvvvvvvvvvvvvvvvvvvvvvvvvvvvvvvvvvvvvvvvvvvvvv"
};
