/* XPM */
static char *_6a473c180f64a97c8bea9124715ce75HWjEjce4L3r9Cinw[] = {
/* columns rows colors chars-per-pixel */
"60 60 230 2 ",
"   c None",
".  c #0E0E0F",
"X  c #12130E",
"o  c #060D13",
"O  c #0C1515",
"+  c #0E1A1A",
"@  c #0D1618",
"#  c #141515",
"$  c #1C1717",
"%  c #1D1A17",
"&  c #141619",
"*  c #1D1718",
"=  c #151819",
"-  c #1A1919",
";  c #171817",
":  c #0F130F",
">  c #2C1314",
",  c #291E15",
"<  c #211A1A",
"1  c #2B1C1C",
"2  c #231916",
"3  c #361617",
"4  c #310F13",
"5  c #2A2216",
"6  c #2B261A",
"7  c #342413",
"8  c #392719",
"9  c #1D1D22",
"0  c #141E36",
"q  c #1D2139",
"w  c #1C2020",
"e  c #232428",
"r  c #28262A",
"t  c #272727",
"y  c #332221",
"u  c #3B2A27",
"i  c #262939",
"p  c #353534",
"a  c #393C3B",
"s  c #33322C",
"d  c #25182D",
"f  c #490D0E",
"g  c #540B0C",
"h  c #480F11",
"j  c #431112",
"k  c #421218",
"l  c #57141A",
"z  c #560C14",
"x  c #66090A",
"c  c #780808",
"v  c #680D18",
"b  c #6B181D",
"n  c #4C2C0F",
"m  c #44270F",
"M  c #552E0B",
"N  c #5A330D",
"B  c #462915",
"V  c #54341A",
"C  c #573619",
"Z  c #45301E",
"A  c #68370B",
"S  c #763D08",
"D  c #612312",
"F  c #521B2B",
"G  c #691B24",
"H  c #72153C",
"J  c #442928",
"K  c #4A352B",
"L  c #583926",
"P  c #423A3A",
"I  c #543A32",
"U  c #562928",
"Y  c #67352A",
"T  c #693432",
"R  c #793B37",
"E  c #54481B",
"W  c #754C16",
"Q  c #584332",
"!  c #5D4C2E",
"~  c #654127",
"^  c #635728",
"/  c #694839",
"(  c #774838",
")  c #735236",
"_  c #77553E",
"`  c #7D4620",
"'  c #7D6C24",
"]  c #7D723D",
"[  c #232A45",
"{  c #293048",
"}  c #343254",
"|  c #2E334D",
" . c #322A60",
".. c #343F67",
"X. c #2A346D",
"o. c #7A1C52",
"O. c #711C49",
"+. c #40394F",
"@. c #603847",
"#. c #384369",
"$. c #394673",
"%. c #354578",
"&. c #434244",
"*. c #565A5B",
"=. c #5C594B",
"-. c #754E4A",
";. c #504565",
":. c #717372",
">. c #8B0304",
",. c #850506",
"<. c #970307",
"1. c #950616",
"2. c #830918",
"3. c #A80005",
"4. c #B80008",
"5. c #A90418",
"6. c #BC071C",
"7. c #B30418",
"8. c #803F06",
"9. c #891A24",
"0. c #991E28",
"q. c #B60823",
"w. c #A31525",
"e. c #863C38",
"r. c #BC2731",
"t. c #C5000D",
"y. c #C8051A",
"u. c #D7051E",
"i. c #CD0D21",
"p. c #DC0822",
"a. c #CA1F32",
"s. c #C4182B",
"d. c #E8142D",
"f. c #F71831",
"g. c #E20922",
"h. c #C62E36",
"j. c #DD383E",
"k. c #D02936",
"l. c #884306",
"z. c #984C07",
"x. c #8F5516",
"c. c #A95D1B",
"v. c #A24E02",
"b. c #BB6611",
"n. c #B6690B",
"m. c #8B5424",
"M. c #8C453D",
"N. c #96443F",
"B. c #804E24",
"V. c #816F22",
"C. c #B76A29",
"Z. c #AE6428",
"A. c #C66714",
"S. c #C27009",
"D. c #CF7428",
"F. c #E37E28",
"G. c #974742",
"H. c #935A43",
"J. c #835D42",
"K. c #A85449",
"L. c #BA564D",
"P. c #B24B46",
"I. c #8B6346",
"U. c #A9684F",
"Y. c #B67A55",
"T. c #A67350",
"R. c #867C71",
"E. c #C2534D",
"W. c #CC5952",
"Q. c #D45C54",
"!. c #C04F4A",
"~. c #E15C56",
"^. c #CC6D57",
"/. c #E06359",
"(. c #F87C65",
"). c #A88D28",
"_. c #C8931F",
"`. c #D2AE2C",
"'. c #EAAC20",
"]. c #E2BB2D",
"[. c #BC8259",
"{. c #908458",
"}. c #CD845C",
"|. c #D68D61",
" X c #D59161",
".X c #DC9665",
"XX c #F78567",
"oX c #EA9969",
"OX c #F49C6C",
"+X c #FF9E70",
"@X c #FFA271",
"#X c #F2A56E",
"$X c #C5AC50",
"%X c #DAC05E",
"&X c #2D3B81",
"*X c #3B3682",
"=X c #2F459D",
"-X c #364899",
";X c #39488D",
":X c #3448A3",
">X c #3C53B2",
",X c #3B52AF",
"<X c #4C5C9A",
"1X c #485687",
"2X c #56619E",
"3X c #445AB4",
"4X c #5567AF",
"5X c #475DC0",
"6X c #4E67C9",
"7X c #586FCA",
"8X c #6479CD",
"9X c #657BD2",
"0X c #657EE1",
"qX c #7B829C",
"wX c #6781E7",
"eX c #979796",
"rX c #898A8C",
"tX c #A1A09E",
"yX c #9D9DA0",
"uX c #A7A6A5",
"iX c #B7B9B9",
"pX c #C3BA93",
"aX c #F0E6BD",
"sX c #B1B9D4",
"dX c #C3C5C6",
"fX c #D9D7D1",
"gX c #DDDEE2",
"hX c #FEFEFE",
"jX c #F2F3F3",
"kX c #E9EAEB",
/* pixels */
"                                                                                                                        ",
"                                                                                                                        ",
"                                                                                                                        ",
"                                                                                                                        ",
"                                                                                                                        ",
"                                                                                                                        ",
"                                                                                                                        ",
"                                                                                                                        ",
"                                                                                                                        ",
"                                                                                                                        ",
"                                                                                                                        ",
"                                                                                                                        ",
"                                                                                                                        ",
"                                                                                                                        ",
"                                                                                                                        ",
"                                                                                                                        ",
"                                                                                                                        ",
"                                                                                                                        ",
"                                                + + + + + O O O O                                                       ",
"                                              $ $ $ $ $ * * < < < < <                                                   ",
"                                            > j f f f h z l G G G G F                                                   ",
"                                          = 3 x ,.>.>.<.5.q.s.a.k.a.9.3 @ & =                                           ",
"                                        > 3 g ,.3.3.4.4.t.u.d.f.f.d.w.l 3 k k 3                                         ",
"                                      $ j x ,.<.3.4.t.t.y.y.u.p.g.p.6.1.1.1.2.l *                                       ",
"                                    & $ j c >.>.<.3.7.6.y.i.i.y.6.7.6.y.y.6.1.l *                                       ",
"                                  X # $ > f g g g z v 0.h.j.j.h.9.b 0.h.r.9.v k                                         ",
"                                9 9 - - % 1 1 1 1 2 1 T P.~.~.!.T 3 R E.P.U 2                                           ",
"                              i #.#.[ % u ! _ -./ s % u ( K.Q.L.I < / ^.U.K O o                                         ",
"                            # { <X4X$.e Q Y..X.X[./ 5 ; y T L.E.T y _ |.Y.K # # = - = =                                 ",
"                            # [ <X7X%.e ~ ^.+X@X|._ < o O K L.^.H./ T.oX XJ.Q I Q Q I K                                 ",
"                            # i ;X3XX.9 Y ^.(.(.^.( < o O I Y.oX|.}..X#X#X X[.[.[.[.Y.I.K #                             ",
"                            # i 1X4X1X&./ K.W.~.W.e.J 1 y / T. X.X X X X X X.XoXOX@XOXT.K #                             ",
"                            # | qXsXsXuXR.-.e.E.Q.L.G.G.G.M.( ) ) ) ) ) ) ) H.^.XXXXXXK.J #                             ",
"                            # &.yXgXjXfXeXP J N.W.Q.W.W.W.G.I e e r r r e e J G.W./.Q.G.J #                             ",
"                              &.:.eXtXeX:.r 2 U e.e.e.e.M.-.;.$.%.$.$.$...X.} @.e.e.e.T u                               ",
"                                p p p p r % % 1 y y y 8 y +.2X8X9X8X8X8X7X3X;X} y 1 y y                                 ",
"                                  . . # 6 E ^ =.*.*.*.a w { 4X0XwX0X0X0X7X5X-X[ & : O                                   ",
"                                    o % E ).$XpXdXdXiX:.s [ -X6X6X6X6X6X3X:X&X[ = X                                     ",
"                                    o % E ).%XaXhXhXjXeXa q &X>X>X>X>X,X-X&X .q - #                                     ",
"                                      # 6 E {.fXhXhXhXuXa 0 X.=X:X=X:X=X&X .q 9 - #                                     ",
"                                    6 6 5 6 =.uXkXjXgXeXP d  .*X*X*X*XX. .e - ; -                                       ",
"                                  6 ^ ' V.' ] R.rXrXrX-.G v H o.o.o.o.O.F 1 # #                                         ",
"                                O 6 ' `.].].).^ p i s l ,.<.7.q.q.q.5.1.v 3 =                                           ",
"                                O 6 ' _.'.'._.B.C V C D c >.3.t.t.4.3.c g 3 =                                           ",
"                                & 5 W n.S.n.b.b.C.C.Z.` B g >.3.4.3.c j >                                               ",
"                                & , M 8.l.l.z.A.F.F.D.m.8 > x ,.>.c g 2 +                                               ",
"                                    8 m m m A z.A.A.b.W 7 $ 4 j f j 3                                                   ",
"                                      - = - 8 S z.v.z.A 5 - 2 , 2 % ;                                                   ",
"                                            , n M M M 7 % 5 n N 7 = @                                                   ",
"                                              5 5 5 5 < % 8 S l.n 2 @                                                   ",
"                                            8 L ~ ~ Y C M N A A n %                                                     ",
"                                          = Z m.C.D.C.c.z.S n 7 ,                                                       ",
"                                          = 8 B.C.C.Z.c.l.A 7 =                                                         ",
"                                          = 5 Z L L C V B 7 2 =                                                         ",
"                                          - - - - - - - - - - -                                                         ",
"                                                                                                                        ",
"                                                                                                                        ",
"                                                                                                                        ",
"                                                                                                                        ",
"                                                                                                                        "
};
