/* XPM */
static char *_b9a7d5cbc414296c5b694d9f31bc3feJQfYI208csgLK0X5[] = {
/* columns rows colors chars-per-pixel */
"35 60 180 2 ",
"   c None",
".  c #660000",
"X  c #690101",
"o  c #6D0807",
"O  c #6F050A",
"+  c #6F0A0A",
"@  c #71060C",
"#  c #710C0C",
"$  c #750912",
"%  c #7D0E1C",
"&  c #780B16",
"*  c #751414",
"=  c #781716",
"-  c #7E131F",
";  c #7C1D1C",
":  c #771A1A",
">  c #7F1120",
",  c #7C2121",
"<  c #861529",
"1  c #89162D",
"2  c #851C2B",
"3  c #851529",
"4  c #8E1B35",
"5  c #931F3C",
"6  c #901C37",
"7  c #822422",
"8  c #852827",
"9  c #832C2B",
"0  c #892D2C",
"q  c #8A242F",
"w  c #8A302E",
"e  c #852C30",
"r  c #932E3B",
"t  c #853233",
"y  c #8E3533",
"u  c #913937",
"i  c #933C3A",
"p  c #903735",
"a  c #96403E",
"s  c #9A2446",
"d  c #9D2649",
"f  c #9F284D",
"g  c #983241",
"h  c #AA2F5B",
"j  c #A42B54",
"k  c #AC315E",
"l  c #AE3261",
"z  c #B03465",
"x  c #B33669",
"c  c #B63B6C",
"v  c #C03F7A",
"b  c #914646",
"n  c #994341",
"m  c #9C4946",
"M  c #964D4D",
"N  c #995353",
"B  c #9B5858",
"V  c #A14F4C",
"C  c #A95A57",
"Z  c #AB5D5A",
"A  c #A95557",
"S  c #AE605D",
"D  c #A0605F",
"F  c #B04662",
"G  c #B15663",
"H  c #B64971",
"J  c #A56868",
"K  c #B26662",
"L  c #B66D69",
"P  c #B56C67",
"I  c #B56279",
"U  c #AC7474",
"Y  c #B17D7D",
"T  c #BE7873",
"R  c #C2407D",
"E  c #C07A76",
"W  c #C37F7A",
"Q  c #C5827D",
"!  c #C84586",
"~  c #CB4789",
"^  c #CF4A8E",
"/  c #C54381",
"(  c #CF4A90",
")  c #D24C93",
"_  c #D74E9A",
"`  c #CF5292",
"'  c #D55599",
"]  c #CA6191",
"[  c #DB53A1",
"{  c #E056A7",
"}  c #E359AB",
"|  c #E157A8",
" . c #EC5EB7",
".. c #D678A6",
"X. c #EE63BC",
"o. c #F162BD",
"O. c #E077B1",
"+. c #F465C3",
"@. c #F865C7",
"#. c #F769C7",
"$. c #F867C8",
"%. c #F969C9",
"&. c #F873CC",
"*. c #F87CCF",
"=. c #F378C8",
"-. c #FE6CD0",
";. c #F87ED0",
":. c #B58282",
">. c #CB8985",
",. c #CF8F8A",
"<. c #D1928C",
"1. c #C49C9D",
"2. c #D69893",
"3. c #D99D97",
"4. c #DA9E98",
"5. c #DDA39D",
"6. c #D19BAB",
"7. c #DF80B3",
"8. c #DF92B9",
"9. c #C9A5A5",
"0. c #D1A5AF",
"q. c #D2B6B5",
"w. c #D6BCBC",
"e. c #E4ACA5",
"r. c #E6AFA8",
"t. c #E9B4AD",
"y. c #E6B0A9",
"u. c #EDB8B1",
"i. c #F1BEB6",
"p. c #F5C4BC",
"a. c #F8C7BF",
"s. c #F982D1",
"d. c #F98CD5",
"f. c #F58CD0",
"g. c #F992D7",
"h. c #FA94D8",
"j. c #F99BDA",
"k. c #F699D5",
"l. c #FAA2DD",
"z. c #F9AADF",
"x. c #F6ACDC",
"c. c #FAADE1",
"v. c #FAB3E2",
"b. c #FABBE5",
"n. c #DAC3C3",
"m. c #DFCCCC",
"M. c #DFD0CE",
"N. c #F9C9C1",
"B. c #FED0C8",
"V. c #E4D3D3",
"C. c #EADDDD",
"Z. c #FAC4E8",
"A. c #FBC9EA",
"S. c #FAC2E7",
"D. c #FBD2ED",
"F. c #F6D5E8",
"G. c #FBDDF2",
"H. c #EEE4E4",
"J. c #F4EEEE",
"K. c #FBECF6",
"L. c #FCEDF7",
"P. c #FBEAF6",
"I. c #F9E8F2",
"U. c #F7F3F3",
"Y. c #FCF2F9",
"T. c #FCF5F9",
"R. c #FCF6FA",
"E. c #FAF3F8",
"W. c #FCF8FB",
"Q. c #FCFAFB",
"!. c #FCFBFC",
"~. c gray99",
"^. c #FCFDFC",
"/. c #FDFDFD",
"(. c #FCFFFD",
"). c #FCFEFD",
"_. c #FDFFFE",
"`. c #FFFEFF",
"'. c #FDFDFD",
"]. c #F8F6F6",
/* pixels */
"                                                                      ",
"                                                                      ",
"                  . . . . . . . . . . . . . . .                       ",
"                  t e 2 3 3 3 3 3 3 3 2 t t t 9                       ",
"        . . . . b U.F.=.+.+.+.+.+.+.+.k.J.U.U.V.t . . .               ",
"        , , , , D ~.G.*.$.%.%.%.%.&.;.c.T._._.C.N , - %               ",
"    X . :.m.m.n.V._.G.*.$.%.%.%.@.l.G.P.W._._.U.V.n..._ j X X         ",
"    X . 1._._._._.~.G.*.$.%.%.%.@.v._._._._._.!._._.h.+.h X X         ",
"    X . 1._._._.G.g.d.%.$.%.%.%.@.v._.W._._._._._.!.g.@.| ) z . X     ",
"    X X 1._.W.!.D.%.%.%.%.%.%.%.@.v.W.W._._._.!.W.T.g.@.%.-.R . X     ",
". $ h x 7.c.c.c.c.v.v.v.v.&.$.%.$.d.z.A.W._._.Y.b.c.*.$.%.%.R . X     ",
". $ ^ #.#.%.%.@.d.W.W.W.Y.s.@.$.%.%.#.j.T._._.P.d.%.@.@.$.%.R . .     ",
". $ ( %.%.%.;.j.v._._._.W.c.j.*.%.%.%.d.Z.A.A.b.*.$.d.j.;.%.) s 5     ",
". $ ^ %.%.%.z.W._._._._.W._.T.j.%.%.%.%.$.$.@.@.@.%.D._.z.%.$.%.) $ . ",
". $ ^ %.%.%.z.W._._._._.W.~.Y.j.%.%.%.%.%.%.d.d.d.d.G.!.b.d.;.%.^ $ . ",
". $ ^ %.%.%.z.W._._._._.W.~.T.j.%.%.%.%.@.s.I.K.K.K.T._.Y.L.b.$.^ $ . ",
". $ ` &.%.%.l.L.T._._._.!.T.P.j.%.%.%.%.@.s.T._._._.W.W.W._.Z.$.^ $ . ",
". * 0.P.j.@.&.*.l._._._.T.h.*.&.%.%.%.%.@.s.T._._._.W._.W._.Z.$.^ $ . ",
". * q._.l.@.$.@.d.Y.Y.Y.L.s.@.$.%.%.%.%.@.s.T._._._._._._._.Z.$.^ $ . ",
". * q._.l.@.%.$.&.j.j.j.h.&.$.%.%.%.%.%.@.s.T._._._._._._._.Z.$.^ $ . ",
". * q._.l.$.%.%.%.%.%.%.%.%.%.%.%.%.%.%.@.s.W._._._._._._._.Z.$.^ $ . ",
". & ..v.] h k k k k k k k k k k k ) %.%.$.&.z.b.P._._.W.D.v.g.%.^ $ . ",
". $ ^ $.d . . . . . . . . . . . . l %.%.%.%.@.*.G._._.W.z.@.@.%.^ $ . ",
". $ z R 4 . 7 m y X # a m # X w m F R R R ~ @.&.v.Z.Z.Z.g.%.| R z $ . ",
"    O O X X A i.>.X 8 5.t.7 O T p.S X o X 3 +.%.%.%.%.%.%.%./ O O     ",
"    . . X X C p.<.X 8 e.p.7 o Q N.T 7 7 7 r _ | +.#.$.@. .{ z . .     ",
"        X X C p.<.. 8 e.p.7 O W N.p.i.i.p.3.# 3 [ %.%.@.l @ o X X     ",
"        X X C p.2.; i r.p.i 7 >.N.N.N.N.N.e.7 q ^ } } { f X X X X     ",
"        X X C p.i.3.5.p.p.5.4.u.N.N.N.N.N.p.5.>.g 3 3 3 $ X X         ",
"        X X C p.N.N.N.N.N.N.N.N.N.N.N.N.N.N.N.e.8 . . . X X X         ",
"            0 y S a.N.N.N.N.N.N.N.N.N.<.n i i y # X z ^ ^ ^ l . X     ",
"              . y p.p.p.p.p.N.N.N.p.p.E O . . . . X ) -.%.-.R . X     ",
"                8 S S S K t.N.N.N.<.Z i o X X X X X ) %.%.%.R . X     ",
"                  X X . o 5.N.N.B.K . X X . . . . X ) -.%.-.R . .     ",
"                X . # u m y.p.3.>.n . X . # a u # X l ~ ! ! H N b     ",
"              X X . 8 e.N.N.i.m . X X X . 7 p.e.8 . . . . . D _.q.* . ",
"            X X X . ; Q 2.2.,.y X X X X . 7 p.y.V 0 # X % 1 I G.6.* . ",
"        X X X X X . o * = = * o X X X X . 7 p.p.t.r.w X l } X.;.` $ . ",
"        # # O X X @ @ @ @ @ @ X X X X X . 7 y.i.p.N.a # c X.X.o.! $ . ",
"    . . L e.Z X 1 { | | | | [ 5 X X X X X O ; p 5.N.y.5.A > % - & X X ",
"    # o Q N.L X 6 %.%.%.%.%.+.d X X X X X X . = <.i.p.p.S # o o o X X ",
". * K Q e.a.L X 4 @.%.%.%.%.o.d X X X X X X X o y n 5.N.5.Q Q Q Z # X ",
". * <.N.N.p.L X 4 @.%.%.%.%.o.s . . X X X X X X X X <.N.N.N.N.N.<.* . ",
"    V S 5.N.L X 4 @.%.%.%.%.+.~ x 4 . X X X X X X X <.N.N.N.5.S V     ",
"    . . E N.L X 4 @.%.%.%.%.%.%.-.z . X X X X X X X <.N.N.N.E . .     ",
"    X . C Q G s H j.j.j.j.j.j.j.j.] s 1 X X X X X X Z Q W Q V . X     ",
"        o # k  .f.Y.Y.Y.Y.Y.Y.Y.R.x.o.v O . X X X X o # o # O X X     ",
"        . X d [ O.m.m.m.m.m.m.m.M.8.{ x O X X X X X X . . . X X X     ",
"        X X X O O o o o + + + + + o O o X . . . . . X X               ",
"        X X X . o , , , ; o X * , , , , , , , , , , o X               ",
"            X . t n.n.n.w., O Y n.n.n.n.n.n.n.n.n.n.t .               ",
"              . b _._._.U.9 o 9._._._._._._._._._._.b .               ",
"                9 M U H.Q.w.9.U M M M M M U ].H.U M 9                 ",
"                  . t V.Q._.J.B . . . . . 9 J.V.t .                   ",
"                  . : J Y Y U 9 X X X X . * U U 9                     ",
"                  X X o o o o X X X . . X X o o                       ",
"                  X X X X X X X X X X X X X X X                       ",
"                      X X X X X X X X X X X                           ",
"                      X X X X X X X X X X X                           ",
"                                                                      "
};
