/* XPM */
static char *_d5a1fbcbc904476b17bf8be59dcb515f4EGuLZbfZa9FvKf[] = {
/* columns rows colors chars-per-pixel */
"64 62 204 2 ",
"   c None",
".  c #0F0701",
"X  c #100904",
"o  c #110904",
"O  c #5A2A1B",
"+  c #5A2B1B",
"@  c #5A2A1C",
"#  c #5B2A1C",
"$  c #5A2B1C",
"%  c #5B2B1C",
"&  c #5E2E1C",
"*  c #4A3515",
"=  c #61301B",
"-  c #61301C",
";  c #66361C",
":  c #6B3A1B",
">  c #6B391C",
",  c #6F3D1C",
"<  c #693622",
"1  c #76441C",
"2  c #79461D",
"3  c #7C491D",
"4  c #7B442B",
"5  c #505A6E",
"6  c #525D71",
"7  c #7D7669",
"8  c #804D1D",
"9  c #8D591E",
"0  c #925D1E",
"q  c #97631E",
"w  c #A26D1F",
"e  c #A36E1F",
"r  c #A46E1F",
"t  c #AD771F",
"y  c #B0791F",
"u  c #955A36",
"i  c #965A37",
"p  c #965B37",
"a  c #995E36",
"s  c #985F36",
"d  c #955A38",
"f  c #955B38",
"g  c #965A38",
"h  c #965B38",
"j  c #955C38",
"k  c #9E6733",
"l  c #9E6334",
"z  c #9E6337",
"x  c #9E6833",
"c  c #9B6038",
"v  c #9B6039",
"b  c #AA732F",
"n  c #B37D20",
"m  c #B67C2C",
"M  c #A46A32",
"N  c #A56A32",
"B  c #A0653A",
"V  c #B2773F",
"C  c #B3783F",
"Z  c #B57A3F",
"A  c #B77C40",
"S  c #BD861F",
"D  c #B7B501",
"F  c #B7A910",
"G  c #BC8520",
"H  c #BF8720",
"J  c #B78C39",
"K  c #B88D3A",
"L  c #D5A21D",
"P  c #DAAA1B",
"I  c #CEB31A",
"U  c #DEB617",
"Y  c #DFB916",
"T  c #CD9520",
"R  c #CF9620",
"E  c #D19721",
"W  c #D09722",
"Q  c #D19821",
"!  c #D09921",
"~  c #D29922",
"^  c #D39A23",
"/  c #D49B24",
"(  c #D59C26",
")  c #D89F29",
"_  c #DBA12B",
"`  c #DDA42E",
"'  c #CEA230",
"]  c #DFA630",
"[  c #DBA33E",
"{  c #E4AB35",
"}  c #E7AD38",
"|  c #E8AF3A",
" . c #E1B13C",
".. c #EAB13C",
"X. c #EBB13D",
"o. c #ECB33E",
"O. c #C9C306",
"+. c #D5D401",
"@. c #D5D406",
"#. c #DFDC04",
"$. c #DCC11E",
"%. c #E9CF0F",
"&. c #EDD60D",
"*. c #E7C911",
"=. c #ECDC13",
"-. c #ECE20A",
";. c #F7ED06",
":. c #F3E508",
">. c #F2E80B",
",. c #FCFA02",
"<. c #FFFE01",
"1. c #FFFF01",
"2. c #FEFC03",
"3. c #FFFD03",
"4. c #FFFA07",
"5. c #FEFE07",
"6. c #FFF70C",
"7. c #FFF50E",
"8. c #FFF40F",
"9. c #FEFE0E",
"0. c #FFEE17",
"q. c #FFEB1B",
"w. c #FFED19",
"e. c #FFE81F",
"r. c #FFE91F",
"t. c #FFF015",
"y. c #FEFE19",
"u. c #F5CE2E",
"i. c #FBDB2A",
"p. c #FFDA34",
"a. c #FFD738",
"s. c #FFD639",
"d. c #FFD53B",
"f. c #FFE426",
"g. c #FFE820",
"h. c #FFE228",
"j. c #FFE12A",
"k. c #FDF52F",
"l. c #87847B",
"z. c #CB9045",
"x. c #CE9345",
"c. c #D39945",
"v. c #D59B47",
"b. c #E5AA4B",
"n. c #E6AB4B",
"m. c #E6AE48",
"M. c #E7AE4A",
"N. c #EFB74B",
"B. c #ECB24D",
"V. c #EFB54E",
"C. c #F0B642",
"Z. c #F1B743",
"A. c #F2BB41",
"S. c #F2B844",
"D. c #F3BA46",
"F. c #F7BD49",
"G. c #F7BD4A",
"H. c #F8BE4B",
"J. c #CFAA61",
"K. c #D0AB62",
"L. c #FAC04D",
"P. c #FDC34F",
"I. c #FFC64F",
"U. c #FFC84D",
"Y. c #FDC350",
"T. c #FFC552",
"R. c #FDFC46",
"E. c #FCFC4A",
"W. c #FCFB6E",
"Q. c #5E6C85",
"!. c #616F89",
"~. c #E6CB93",
"^. c #F0E28C",
"/. c #FBFA85",
"(. c #FAF997",
"). c #CCC4B5",
"_. c #FBDEA7",
"`. c #ECDBB8",
"'. c #EFE0A7",
"]. c #FAF9A6",
"[. c #F5EFBD",
"{. c #F9F9B1",
"}. c #F9F9B5",
"|. c #F9F8BA",
" X c #F9F8BD",
".X c #CFCDC6",
"XX c #CFCDCC",
"oX c #CBCED6",
"OX c #D6D4D2",
"+X c #D9D5D0",
"@X c #EEDFC2",
"#X c #FAE8C6",
"$X c #F9E8C8",
"%X c #F9F8CC",
"&X c #F1E6D1",
"*X c #F1E6D2",
"=X c #F2E8D1",
"-X c #F9EEDA",
";X c #F9F8D3",
":X c #F8F8D5",
">X c #F8F0E0",
",X c #F8F7F0",
"<X c #F8F7F1",
"1X c #F8F7F7",
/* pixels */
"                                                                                                                                ",
"                                                                                                                                ",
"                                                        j g g g g                                                               ",
"                                                        g g g g g                                                               ",
"                                                        g g g g g                                                               ",
"                                                        E Q Q Q Q                                                               ",
"                                                        E Q Q Q Q                                                               ",
"                                                    Q Q `.&X&X;.;.g g g                                                         ",
"                                                    Q Q &X1X1X1.1.g g g                                                         ",
"                                                    Q Q &X1X1X1.1.g g g                                                         ",
"                                                    Q Q &X1X1X1.1.g g g                                                         ",
"                                                    L L =X1X1Xy.y.B B B                                                         ",
"                                                Q Q 1.1.%X1X1X1X1XT.T.B.g g                                                     ",
"                                                Q Q 1.1.%X1X1X1X1XT.T.B.g g                                                     ",
"                                                Q Q :X:X<X1X1X1X1X6.6.=.g g                                                     ",
"                                                Q Q 1X1X1X1X1X1X1X1.1.-.g g                                                     ",
"                                              P Y Y 1X1X1X1X1X1X1X1.1.>.A A                                                     ",
"                                            Q U 1.1.1X1X1X1X1X1X1X1.1.6.T.T.g g                                                 ",
"                                            Q U 1.1.1X1X1X1X1X1X1X1.1.6.T.T.g g                                                 ",
"                                  Q Q Q Q *.1.E.1X1X1X1X1X1X1X1X1X1.1.1.1.1.T.T.Z g g g g                                       ",
"                                  Q Q Q Q *.1.E.1X1X1X1X1X1X1X1X1X1.1.1.1.1.T.T.Z g g g g                                       ",
"                    E E E E E E E %.%.~.~.^./.].1X1X1X1X1X1X1X1X1X/./.W.1.1.f.f.$.I ' x.x.g g g g g g g                         ",
"                  E Q Q Q Q Q Q Q 1.1.1X1X1X1X1X1X1X1X1X1X1X1X1X1X1X1X%X1.1.1.1.1.1.h.T.T.g g g g g g g                         ",
"                  E Q Q Q Q Q Q Q 1.1.1X1X1X1X1X1X1X1X1X1X1X1X1X1X1X1X%X1.1.1.1.1.1.h.T.T.g g g g g g g                         ",
"    Q Q Q Q Q Q Q &.1.9.1X1X1X1X1X1X1X1X1X1X1X#XT.T.T.T.-X1X1X1X1XT.T.T.T.T.1.1.1.1.1.1.1.1.1.1.1.1.T.T.c g g g g g g           ",
"    Q Q Q Q Q Q Q &.1.9.1X1X1X1X1X1X1X1X1X1X1X#XT.T.T.T.-X1X1X1X1XT.T.T.T.T.1.1.1.1.1.1.1.1.1.1.1.1.T.T.c g g g g g g           ",
"    N N b :.:.'.@X[.|. X1X1X1X1X1X1X1X1X1X1X1XOXl.l.* * +X1X1X1X1Xl.l.7 * * 1.1.1.1.1.1.1.1.1.1.1.1.t.t.M.b.b.b.c.< <           ",
"    g g k 1.1.;X1X1X1X1X1X1X1X1X1X1X1X1X1X1X1XoX!.!.. . XX1X1X1X1X!.!.6 . . 1.1.1.1.1.1.1.1.1.1.1.1.1.1.U.T.T.T.M.$ $           ",
"    g g k 1.1.(.{.{.{.}.1X1X1X1X1X1X1X1X1X>X$X).!.!.. . XX1X1X{.{.!.!.6 . . 0.0.4.1.1.1.1.1.1.0.0.0.0.0.A.D.D.D.[ $ $           ",
"    g g k 1.1.1.1.1.1.9.1X1X1X1X1X1X1X1X1X_.T.K.!.!.. . XX1X1X1.1.!.!.6 . . T.T.w.1.1.1.1.1.1.T.T.T.T.T.Q Q Q Q G $ $           ",
"    p g x ,.,.1.1.1.1.9.<X<X<X<X<X1X1X1X1X_.T.J.Q.Q.. . .X<X<X1.1.Q.Q.5 . . T.T.w.1.1.1.1.1.1.T.T.T.Y.Y.Q Q R R S $ $           ",
"          s s N.I.e.1.1.5.5.5.5.5.1X1X1X1X_.T.K o o . . @.5.5.1.1.o o o . . T.T.w.1.1.1.1.I.I.T.T.T.Q Q Q Q r & &               ",
"          g g V.T.g.1.1.1.1.1.1.1.1X1X1X1X_.T.J . . . . +.1.1.1.1.. . . . . T.T.w.1.1.1.1.T.T.T.T.T.Q Q Q Q e $ +               ",
"              V C  .d.d.d.d.1.1.1.R.R.R.R.k.0.F . . . . +.1.1.1.1.. . . . . 0.0.4.1.e.d.d.T.T.` ` ` Q Q 8 3 1                   ",
"              p g v.T.T.T.T.1.1.1.1.1.1.1.1.1.D . . . . +.1.1.1.1.. . . . . 1.1.1.1.h.T.T.T.T.Q Q Q Q Q - $ $                   ",
"              p g z.b.b.D.D.t.t.t.1.1.1.1.1.1.O.* * * * #.1.1.1.1.* * * * * 1.1.6.t.p.T.T.D.D.Q Q Q n n = $                     ",
"                  g g s Q Q T.T.T.1.1.1.1.1.1.w.T.T.T.T.6.1.1.1.1.T.T.T.T.T.1.1.d.T.T.T.T.Q Q Q Q Q $ $                         ",
"                  g g s Q Q T.T.T.1.1.1.1.1.1.w.T.T.T.T.6.1.1.1.1.T.T.T.T.T.1.1.d.T.T.T.T.Q Q Q Q Q $ $                         ",
"                  g g g g g Q Q Q 1.1.1.1.1.1.1.1.1.1.1.1.1.1.1.1.1.1.1.1.1.T.T.T.T.} Q Q Q Q g g g $ $                         ",
"                  g g g g g Q Q Q 1.1.1.1.1.1.1.1.1.1.1.1.1.1.1.1.1.1.1.1.1.T.T.T.T.} Q Q Q Q g g g $ $                         ",
"                    g p g g Q Q Q f.f.1.1.1.1.1.1.1.1.1.1.1.1.f.f.f.f.f.f.f.T.T.T.T.} Q Q m m 4 4 4 $ $                         ",
"                        g g Q Q Q T.T.1.1.1.1.1.1.1.1.1.1.1.1.T.T.T.T.T.T.T.T.T.T.T.} Q Q g g $ $ $                             ",
"                        g g Q Q Q T.T.1.1.1.1.1.1.1.1.1.1.1.1.T.T.T.T.T.T.T.T.T.T.T.} Q Q g g $ $ $                             ",
"                        g g Q Q Q T.T.1.1.1.1.1.1.1.T.T.) Q Q Q Q T.T.T.T.T.T.T.T.T.} Q Q Q Q $ $ $                             ",
"                        g g Q Q Q T.T.1.1.1.1.1.1.1.T.T.) Q Q Q Q T.T.T.T.T.T.T.T.T.} Q Q Q Q $ $ $                             ",
"                        g g C.C.C.T.T.1.1.q.d.u.Y Y ] ] Q Q Q Q Q ] ] ] ] ] T.T.T.T.F.C.C.Q Q $ $ $                             ",
"                        g g T.T.T.T.T.1.1.h.T.C.Q Q Q Q Q Q Q Q Q Q Q Q Q Q T.T.T.T.T.T.T.Q Q $ $ $                             ",
"                        l l T.T.T.T.T.6.6.i.H.o.Q Q Q Q Q Q Q Q Q Q Q Q Q Q H.H.P.T.T.T.T.Q Q > > >                             ",
"                        Q Q T.T.T.T.T.T.T.| Q Q Q Q Q Q Q Q Q Q Q Q Q Q Q Q Q Q C.T.T.T.T.Q Q Q Q Q                             ",
"                        Q Q T.T.T.T.T.T.T.| Q Q Q Q Q Q Q Q Q Q Q Q Q Q Q Q Q Q C.T.T.T.T.Q Q Q Q Q                             ",
"                        Q Q T.T.T.T.T.( ( Q Q Q Q Q ; ; ; ; ; ; ; ; ; 2 Q Q Q Q / ( X.T.T.L.L.Q Q Q                             ",
"                        Q Q T.T.T.T.T.Q Q Q Q Q Q Q $ $ $ $ $ $ $ $ $ , Q Q Q Q Q Q | T.T.T.T.Q Q Q                             ",
"                    g l X.X.T.T.T.{ { Q Q y 9 9 9 9                   : 9 9 9 9 G Q _ { { T.T.X.X.X.$ $                         ",
"                  g g c T.T.T.T.T.Q Q Q Q q $ $ $ $                     $ $ $ $ t Q Q Q Q T.T.T.T.T.$ $                         ",
"                  g g c F.F.F.F.F.G G G G 0 $ $ $ $                     $ $ $ $ e G G G G F.F.F.F.F.$ $                         ",
"                  g g s Q Q Q Q Q $ $ $ $ +                                     + $ $ $ $ Q Q Q Q Q $ $                         ",
"                  g g s Q Q Q Q Q $ $ $ $ +                                     + $ $ $ $ Q Q Q Q Q $ $                         ",
"                  $ $ $ $ $ $ $ $                                                         $ $ $ $ $ $ $                         ",
"                  $ $ $ $ $ $ $ $                                                         $ $ $ $ $ $ $                         ",
"                    $ $ $ $ $ $ $                                                         $ $ $ $ $ $ $                         ",
"                                                                                                                                ",
"                                                                                                                                "
};
