/* XPM */
static char *xpm_[] = {
/* columns rows colors chars-per-pixel */
"64 64 131 2 ",
"   c black",
".  c #070600",
"X  c #130D00",
"o  c #0E100C",
"O  c #1A1300",
"+  c #121510",
"@  c #161914",
"#  c #191B18",
"$  c #211C00",
"%  c #1F231C",
"&  c #322801",
"*  c #2E2C19",
"=  c #353C2F",
"-  c #343434",
";  c #4A3F02",
":  c #403A2E",
">  c #574802",
",  c #726103",
"<  c #7C6803",
"1  c #404839",
"2  c #41493A",
"3  c #4E5549",
"4  c #555B50",
"5  c #5A6651",
"6  c #5C6854",
"7  c #5F645B",
"8  c #606547",
"9  c #636749",
"0  c #8C6106",
"q  c #8E6406",
"w  c #946103",
"e  c #966203",
"r  c #986403",
"t  c #9B6503",
"y  c #9C6603",
"u  c #997006",
"i  c #9F711D",
"p  c #A26A03",
"a  c #AD7204",
"s  c #AE7204",
"d  c #AE7304",
"f  c #A47B06",
"g  c #A77E06",
"h  c #B07404",
"j  c #B27604",
"k  c #B47705",
"l  c #B57705",
"z  c #B67805",
"x  c #B57A05",
"c  c #B57B05",
"v  c #A27117",
"b  c #A47317",
"n  c #A87517",
"m  c #C17F04",
"M  c #C27F04",
"N  c #AB8206",
"B  c #AE8606",
"V  c #AF8706",
"C  c #B78005",
"Z  c #BA8505",
"A  c #B08806",
"S  c #B79006",
"D  c #BC9506",
"F  c #B78018",
"G  c #B8831F",
"H  c #BC8B18",
"J  c #C48105",
"K  c #C68204",
"L  c #C88305",
"P  c #CD8705",
"I  c #CC8E05",
"U  c #C79A05",
"Y  c #C39C06",
"T  c #D79C05",
"R  c #D59F05",
"E  c #C7A305",
"W  c #C9A306",
"Q  c #CCA205",
"!  c #CAA605",
"~  c #CEA806",
"^  c #CCAA06",
"/  c #CCAC06",
"(  c #CCAE06",
")  c #CFB106",
"_  c #E4C106",
"`  c #EBC906",
"'  c #F3D007",
"]  c #F3D009",
"[  c #F3D00A",
"{  c #F3D10B",
"}  c #F3D10C",
"|  c #F5D314",
" . c #F5D415",
".. c #F5D416",
"X. c #F4D41A",
"o. c #F4D41E",
"O. c #F5D625",
"+. c #F8D821",
"@. c #F9D925",
"#. c #F5D729",
"$. c #F6D82D",
"%. c #F5D82E",
"&. c #F6D82F",
"*. c #FBDC2C",
"=. c #F6D934",
"-. c #FADC32",
";. c #FCDE32",
":. c #F7DB3D",
">. c #898973",
",. c #F7DC41",
"<. c #F8DD47",
"1. c #F8DE49",
"2. c #F9E04E",
"3. c #F9E159",
"4. c #FBE359",
"5. c #F9E25B",
"6. c #FBE35B",
"7. c #F9E25D",
"8. c #FAE361",
"9. c #FAE465",
"0. c #FCE669",
"q. c #FCE66C",
"w. c #FCE770",
"e. c #899085",
"r. c #9E9B89",
"t. c #A0A49E",
"y. c #B9B3A6",
"u. c #FCEA80",
"i. c #FDEB84",
"p. c #C0C0C0",
"a. c None",
/* pixels */
"a.a.a.a.G k k k k k k k k k k k k k k k k k k k k k k k j c j k k k k k k k k k k k k k k k k k k k k k k k k k k k w i a.a.a.a.",
"a.a.a.a.H Z Z Z Z Z Z Z Z Z Z Z Z Z Z Z Z Z Z Z Z Z Z Z Z Z Z Z Z Z Z Z Z Z Z Z Z Z Z Z Z Z Z Z Z Z Z Z Z Z Z Z Z Z p n a.a.a.a.",
"a.a.k c E ( ( ( ( ( ( ( ( ( ( ( ( ( ) ) ( ( ( ( ( ( ( ( ( ( ( ) ( ( ( ( ( ( ( ( ( ( ( ( ( ( ( ( ( ( ( ( ( ( ( ( ( ( P m e e a.a.",
"a.a.c C ! ) ) ) ) ) ) ) ) ) ) ) ) ) ) ) ) ) ) ) ) ) ) ) ) ) ) ) ) ) ) ) ) ) ) ) ) ) ) ) ) ) ) ) ) ) ) ) ) ) ) ) ~ / P m t e a.a.",
"G H E ! _ ` ` ` ` ` ` ` ` ` ` ` ` ` ` ` ` ` ` ` ` ` ` ` ` ` ` ` ` ` ` ` ` ` ` ` ` ` ` ` ` ` ` ` ` ` ` ` ` ` ` ` R I P K j a v i ",
"k Z ( ) ` ' ' ' ' ' ' ' ' ' ' ' ' ' ' ' ' ' ' ' ' ' ' ' ' ' ' ' ' ' ' ' ' ' ' ' ' ' ' ' ' ' ' ' ' ' ' ' ' ' ' ' T P P L k k t e ",
"k Z ( ) ` ' i.q.-. .' ' i.0.-. .' *.;.;.;.;.;.;.-.;.;.;.;.;.;.;.;.;.;.;.;.;.;.;.;.;.;.;.;.;.-.;.;.;.;.;.' ' $.w.O.' P L c k t e ",
"k Z ( ) ` ' q.6.-. .' ] 0.6.-. .' +.@.@.@.@.@.@.@.@.@.@.@.@.@.@.@.@.@.@.@.@.@.@.@.@.@.@.@.@.@.@.@.@.@.@.' ' $.w.O.' P L k k t w ",
"j Z ( ) ` ' -.-.-. .' ' -.-.-. .' ' ' ' ' ' ' ' ' ' ' ' ' ' ' ' ' ' ' ' ' ' ' ' ' ' ' ' ' ' ' ' ' ' ' ' ' ' $.w.O.' P L k k y e ",
"c Z ( ) ` ]  . . .} ' '  . . .} ' ' ' ' ' ' ' ' ' ' ' ' ' ' ' ' ' ' ' ' ' ' ' ' ' ' ' ' ' ' ' ' ' ' ' ' ' ' $.w.O.' P L z k y e ",
"j Z ( ) ` ' ' ' ] ' ' ' ' ' ] ' ' ' ' ' ' ' ' ' ' ' ' ' ' ' ' ' ' ' ' ' ' ' ' ' ' ' ' ' ' ' ' ' ' ' ' ' ' ' &.q.O.' P L k k y e ",
"k Z ( ) ` ' ' ] ] ' ' ' ' ' ' ' ' ' ' ' ' ' ' ' ' ' ' ' ' ' ' ' ' ' ' ' ' ' ' ' ' ' ' ' ' ' ' ' ' ' ' ' ' ' &.w.O.' P L z j t w ",
"k Z ( ) ` ' i.0.-. .' ' i.6.' ' ' ' ' ' ' ' ' ' ' ' ' ' ' ' ' ' ' ' ' ' ' ' ' ' ' ' ' ' ' ' ' ' ' ' ' ' ' ' &.w.O.' P L z k y e ",
"k Z ( ) ` ' 0.6.-. .' ' 0.2.| ] ' ' ' ' ' ' ' ' ' ' ' ' ' ' ' ' ' ' ' ' ' ' ' ' ' ' ' ' ' ' ' ' ' ' ' ' ' ' $.q.O.' P L z k t e ",
"k Z ( ) ` ' -.-.-. .' ' -.-.-. .' ' ' ' ' ' ' ' ' ' ' ' ' ' ' ' ' ' ' ] ' ' ' ' ' ' ' ' ' ' ' ' ' ' ' ' ' ' &.w.O.' P L c k y e ",
"k Z ( ) ` ]  . . .} ' ]  . . .} ' A N V V V V V A ~ ' ' ' ' ' ' ' ' ' V V V N V V V Y ' ' ' ' ' ' ' ' ' ' ' &.w.O.' P L k j t w ",
"k Z ( ) ` ' ' ' ' ' ' ' ' ' ' ' ' u 0 0 0 0 0 0 q D ' ' ' ' ' ' ' ' ' 0 0 0 0 0 0 0 N ' ' ' ' ' ' ' ' ' ' ' $.w.O.' P L k k y e ",
"k Z ( ) ` ' *.+.' ' ' ' ' ' ' ' ' & X * 8 r.y.X O < ' ' ' ' ' ' ' ' ' X : y.>.9 8 X > ' ' ' ' ' ' ' ' ' ' ' $.w.O.' P L z k y e ",
"k Z ( ) ` ' ;.@.' ' ' ' ' ' ' ' ' $   # 6 t.p.  . , ' ' ' ' ' ' ' ' '   - p.e.6 5   ; ' ' ' ' ' ' ' ' ' ' ' $.w.O.' P L k k y e ",
"k Z ( ) ` ' ;.@.' ' ' ' ' ' ' ' ' $   * 6 t.p.  . , ' ' ' ' ' ' ' ' '   - p.e.6 5   ; ' ' ' ' ' ' ' ' ' ' ' $.w.O.' P L z j t w ",
"k Z ( ) ` ' ;.@.' ' ' ' ' ' ' ' ] $   % 5 t.p.  . , ' ' ' ' ' ' ' ' '   - p.e.6 5   ; ' ' ' ' ' ' ' ' ' ' ' $.w.O.' P L z k y e ",
"k Z ( ) ` ' ;.@.' ' ' ' ' ' ' ' ' $   @ 1 4 7   . , ' ' ' ' ' ' ' ' '   # 7 3 1 1   ; ' ' ' ' ' ' ' ' ' ' ' $.w.O.' P L z k t e ",
"k Z ( ) ` ' ;.@.' ' ' ' ' ' ' ' ' $   + = = =   . , ' ' ' ' ' ' ' ' '   o = = = =   ; ' ' ' ' ' ' ' ' ' ' ' $.w.O.' P L c k y e ",
"k Z ( ) ` ' ;.@.' ' ' ' ' ' ' ' ' $   + = = =   . , ' ' ' ' ' ' ' ' '   o = = = =   ; ' ' ' ' ' ' ' 6.i.' ' $.w.O.' P L k j t w ",
"k Z ( ) ` ' ;.@.' ' ' ' ' ' ' ' ' $   + = = =   . , ' ' ' ' ' ' ' ' '   o = = = =   ; ' ' ' ' ' ' ' 3.i.' ' $.w.O.' P L z k y e ",
"k Z ( ) ` ' ;.@.' ' ' ' ' ' ' ' ' $   + = = =   . , ' ' ' ' ' ' ' ' '   o = = = =   ; ' ' ' ' ' ' ' =.1.' ' $.w.O.' P L z k y w ",
"k Z ( ) ` ' ;.@.' ' ' ' ' ' ' ' ' $   + = = =   . , ' ' ' ' ' ' ' ' '   o = = = =   ; ' ' ' ' ' ' ' ' ' ' ' &.q.O.' P L k k y w ",
"k Z ( ) ` ' ;.@.' ' ' ' ' ' ' ' ' $   + = = =   . , ' ' ' ' ' ' ' ' '   o = = = =   ; ' ' ' ' ' ' ' ' ' ' ' &.w.O.' P L z k y w ",
"k Z ( ) ` ' ;.@.' ' ' ' ' ' ' ' ' $   + = = =   . , ' ' ' ' ' ' ' ' '   o = = = =   ; ' ' ' ' ' ' ' ' ' ' ' &.w.O.' P L z k y e ",
"k Z ( ) ` ' ;.@.' ' ' ' ' ' ' ' ' u 0 0 0 0 0 0 q D ' ' ' ' ' ' ' ' ' 0 0 0 0 0 0 0 N ' ' ' ' ' ' ' 6.i.' ' $.q.O.' P L z k y w ",
"k Z ( ) ` ' ;.@.' ' ' ' ' ' ' ' ' V f f f f f f g W ' ' ' ' ' ' ' ' ' f f f g f f f D ' ' ' ' ' ' ' 6.i.' ' &.w.O.' P L k k y w ",
"k Z ( ) ` ' ;.@.' ' ' ' ' ' ' ' ' ' ' ' ' ' ' ' ' ' ' ' ' ' ' ' ' ' ' ' ' ' ' ] ' ' ' ' ' ' ' ' ' ' 6.i.' ' &.w.O.' P L z k y w ",
"k Z ( ) ` ' ;.@.' ' ' ' ' ' ' ' ' ' ' ' ' ' ' ' ' ' ' ' ' ' ' ' ' ' ' ' ' ' ' ' ' ' ' ' ' ' ' ' ' ' 6.i.' ' $.w.O.' P L c k y w ",
"k Z ( ) ` ' ;.@.' ' ' ' ' ' ' ' ' ' ' ' ' ' ' ' ' ' ' ' ' ' ' ' ' ' ' ' ' ' ' ' ' ' ' ' ' ' ' ' ' ' 5.i.' ' $.w.O.' P L k k y w ",
"k Z ( ) ` ' ;.@.' ' ' ' ' ' ' ' ' ' ' ' ' ' ' ' ' ' ' ' ' ' ' ' ' ' ' ' ' ' ' ' ' ' ' ' ' ' ' ' ' ' 5.i.' ' $.w.O.' P L k k y w ",
"k Z ( ) ` ' ;.@.' ' ' ' ' ' ' ' ' ' ' ' ' ' ' ' ' ' ' ' ' ' ' ' ' ' ' ' ' ' ' ' ' ' ' ' ' ' ' ' ' ' ' ' ' ' $.w.O.' P K z k y w ",
"k Z ( ) ` ' ;.@.' ' ' ' ' ' ' ' ' ' ' ' ' ' ' ' ' ' ' ' ' ' ' ' ' ' ' ' ' ' ' ' ' ' ' ' ' ' ' ' ' ' o.#.' ' $.w.O.' P L z k y e ",
"k Z ( ) ` ' ;.@.' ' ' ' ' ' ' ' ' ' ' ' ' ' ' ' ' ' ' ' ' ' ' ' ' ' ' ' ' ' ' ' ' ' ' ' ' ' ' ' ' ' 5.i.' ' $.w.O.' P L z k y w ",
"k Z ( ) ` ' -.@.' ' ' ' ' ' ' ' ' ' ' ' ' ' ' ' ' ' ' ' ' ' ' ' ' ' ' ' ' ' ' ' ' ' ' ' ' ' ' ' ' ' 5.i.' ' $.w.O.' P L k k y w ",
"k Z ( ) ` ' ;.@.' ' ' ' ' ' ' ' ' ' ' ' ' ' ' ' ' ' ' ' ' ' ' ' ' ' ' ' ' ' ' ' ' ' ' ' ' ' ' ' ' ' 5.i.' ' $.w.O.' P L z k y w ",
"k Z ( ) ` ' ;.@.' ' ' ' ' ' ' ' ' ' ' ' ' ' ' ' ' ' ' ' ' ' ' ' ' ' ' ' ' ' ' ' ' ' ' ' ' ' ' ' ' ' 6.i.' ' $.w.O.' P L z k y e ",
"k Z ( ) ` ' ;.@.' ' ' ' ' ' ' ' ' ' ' ' ' ' ' ' ' ' ' ' ' ' ' ' ' ' ' ' ' ' ' ' ' ' ' ' ' ' ' ' ' ' 6.i.' ' $.w.O.' P L z k y w ",
"k Z ( ) ` ' ;.@.' ' ' ' ' ' ' ' ' ' ' ' ' ' ' ' ' ' ' ' ' ' ' ' ' ' ' ' ' ' ' ' ' ' ' ' ' ' ' ' ' ' 6.i.' ' &.q.O.' P L k k y w ",
"k Z ( ) ` ' ;.@.' ' ' ' ' ' ' ' ' ' ' ' ' ' ' ' ' ' ' ' ' ' ' ' ' ' ' ' ' ' ' ' ' ' ' ' ' ' ' ' ' ' 6.i.' ' &.w.O.' P L z k y w ",
"k Z ( ) ` ' ;.@.' ' ' ' ' ' ' ' ' ' ' ' ' ' ' ' ' ' ' ' ' ' ' ' ' ' ' ' ' ' ' ' ' ' ' ' ' ' ' ' ' ' 5.i.' ' $.w.O.' P L z k y e ",
"k Z ( ) ` ' ;.@.' ' ' ' ' ' ' ' ' ' ' ' ' ' ' ' ' ' ' ' ' ' ' ' ' ' ' ' ' ' ' ' ' ' ' ' ' ' ' ' ' ' 5.i.' ' $.q.O.' P L z k y w ",
"k Z ( ) ` ' ;.@.' ' ' ' ' ' ' ' ' ' ' ' ' ' ' ' ' ' ' ' ' ' ' ' ' ' ' ' ' ' ' ' ' ' ' ' ' ' ' ' ' ' 5.i.' ' &.w.O.' P L k k y w ",
"k Z ( ) ` ' ;.@.' ' ' ' ' ' ' ' ' ' ' ' ' ' ' ' ' ' ' ' ' ' ' ' ' ' ' ' ' ' ' ' ' ' ' ' ' ' ' ' ' ' 5.i.' ' &.w.O.' P L z k y w ",
"k Z ( ) ` ' ;.@.' ' ' ' ' ' ' ' ' ' ' ' ' ' ' ' ' ' ' ' ' ' ' ' ' ' ' ' ' ' ' ' ' ' ' ' ' ' ' ' ' ' 5.i.' ' $.w.O.' P L k k y e ",
"k Z ( ) ` ' ;.@.' ' ' ' ' ' ' ' ' ' ' ' ' ' ' ' ' ' ' ' ' ' ' ' ' ' ' ' ' ' ' ' ' ' ' ' ' ' ' ' ' ' 5.i.' ' $.w.O.' P L k k y e ",
"k Z ( ) ` ' ;.@.' ' ' ' ' ' ' ' ' ' ' ' ' ,.7.' ] $.6.6.6.6.<.' ' <.5.5.5.5.5.5.5.5.5.5.6.3.6.6.5.7.:.$.' ' $.w.O.' P K k k y e ",
"k Z ( ) ` ' ;.@.' ' ' ' ' ' ' ' ' ' ' ' ' 7.i.' ] ,.i.i.i.i.9.' ' 9.i.i.i.i.i.i.i.i.i.i.i.i.i.i.i.i.$.] ' ' $.w.O.' P K z j t w ",
"k Z ( ) ` ' ' ' ' ' ' ' ' ' ' ' ' ' ' ' ' ' ' ' ] ' ' ' ' ' ' ' ' ' ' ' ' ' ' ' ' ' ' ' ' ' ' ' ' ' ' ' w.w.w.w.O.' P L z k y e ",
"k Z ( ) ` ' ' ' ' ' ' ' ' ' ' ' ' ' ' ' ' ' ' ' ' ' ] ] ' ' ' ' ' ' ' ' ] ] ' ' ' ' ' ' ' ' ' ' ' ' ' ' w.w.w.w.O.' P L z k t e ",
"k Z ( ) ` ' %.%.$.$.$.$.$.$.%.$.$.$.&.&.$.$.&.&.$.$.$.$.$.%.%.%.$.$.$.$.$.$.$.$.$.$.$.$.&.&.&.&.$.$.$.$.w.w.8.1.o.' P L c k y e ",
"k Z ( ) ` ' q.w.w.w.w.w.w.w.w.w.w.w.q.w.w.q.w.w.q.w.w.w.q.w.w.w.w.w.w.q.w.w.w.w.w.w.w.q.w.w.q.w.w.w.w.w.w.w.1.' ' ' P L k j t w ",
"k Z ( ) ` ' O.O.O.O.O.O.O.O.O.O.O.O.O.O.O.O.O.O.O.O.O.O.O.O.O.O.O.O.O.O.O.O.O.O.O.O.O.O.O.O.O.O.O.O.O.O.O.O.X.' ' ' P L k k y e ",
"k Z ( ) ` ' ' ' ' ' ' ] ' ' ' ' ' ' ' ' ' ' ' ' ' ' ' ' ' ' ' ' ] ] ' ' ' ' ' ' ' ' ' ' ' ' ' ' ' ' ' ' ' ' ' ' ' ' P L z k y e ",
"k k k z L P P P P P P P P P P P P P P P P P P P P P P P P P P P P P P P P P P P P P P P P P P P P P P P P P P P Q ( k k k k y w ",
"G n k k K L L L P K L L L L L L L L L L L L L L L L L L L L L L K K L L L L L L L L L L L L L L L L L L L L L L U W k j a a v i ",
"a.a.z z k k z z z z k c k k z z k z z z z z z k z z z z k z z z z z z k c k z z z z z z z z c k z z z z k z z z c c k a r e a.a.",
"a.a.z z k k k k k k k k k k k k k k k k k k k k k k k k k k k k k k k k k k k k k k k k k k k k k k k k j c k k k k k a e e a.a.",
"a.a.a.a.b y y y y y t t t t y y y y y y y y y y y y y y y y y y y y y y y y y y y y y y y y t t y t y y t t t t y y t v a.a.a.a.",
"a.a.a.a.i w w w w e w w e e e e w w w w w e w w w w w e w w w w w e w w w w w e w w w w w w w w e w e e w w e w w e e i a.a.a.a."
};
